<svg width="393" height="332" viewBox="0 0 393 332" fill="none" xmlns="http://www.w3.org/2000/svg">
<rect width="393" height="332" fill="white"/>
<path d="M149.93 265.7H150.89L150.22 268.07C150.147 268.337 150.083 268.59 150.03 268.83C149.983 269.063 149.96 269.23 149.96 269.33C149.96 269.457 150 269.557 150.08 269.63C150.16 269.697 150.267 269.73 150.4 269.73C150.62 269.73 150.837 269.647 151.05 269.48C151.27 269.307 151.463 269.083 151.63 268.81C151.803 268.53 151.943 268.217 152.05 267.87C152.157 267.517 152.21 267.16 152.21 266.8C152.21 266.347 152.12 265.93 151.94 265.55C151.767 265.163 151.523 264.83 151.21 264.55C150.903 264.27 150.537 264.05 150.11 263.89C149.683 263.73 149.217 263.65 148.71 263.65C148.11 263.65 147.547 263.763 147.02 263.99C146.5 264.21 146.047 264.517 145.66 264.91C145.28 265.297 144.98 265.757 144.76 266.29C144.54 266.823 144.43 267.397 144.43 268.01C144.43 268.583 144.527 269.107 144.72 269.58C144.92 270.053 145.197 270.46 145.55 270.8C145.91 271.133 146.34 271.393 146.84 271.58C147.34 271.767 147.893 271.86 148.5 271.86C149.627 271.86 150.673 271.527 151.64 270.86L151.85 271.17C151.263 271.577 150.693 271.873 150.14 272.06C149.587 272.247 148.997 272.34 148.37 272.34C147.657 272.34 147.003 272.233 146.41 272.02C145.817 271.807 145.307 271.507 144.88 271.12C144.453 270.74 144.12 270.283 143.88 269.75C143.64 269.217 143.52 268.633 143.52 268C143.52 267.327 143.65 266.697 143.91 266.11C144.177 265.523 144.54 265.017 145 264.59C145.467 264.157 146.01 263.817 146.63 263.57C147.257 263.323 147.93 263.2 148.65 263.2C149.25 263.2 149.793 263.287 150.28 263.46C150.773 263.633 151.197 263.877 151.55 264.19C151.903 264.503 152.177 264.88 152.37 265.32C152.563 265.76 152.66 266.247 152.66 266.78C152.66 267.24 152.59 267.68 152.45 268.1C152.317 268.513 152.133 268.88 151.9 269.2C151.667 269.513 151.397 269.763 151.09 269.95C150.783 270.137 150.46 270.23 150.12 270.23C149.48 270.23 149.13 269.847 149.07 269.08H149.03C148.823 269.427 148.567 269.707 148.26 269.92C147.953 270.127 147.647 270.23 147.34 270.23C147.127 270.23 146.927 270.187 146.74 270.1C146.56 270.013 146.403 269.897 146.27 269.75C146.137 269.597 146.03 269.417 145.95 269.21C145.877 268.997 145.84 268.767 145.84 268.52C145.84 268.153 145.917 267.797 146.07 267.45C146.223 267.097 146.423 266.783 146.67 266.51C146.923 266.237 147.207 266.017 147.52 265.85C147.84 265.683 148.167 265.6 148.5 265.6C148.813 265.6 149.063 265.68 149.25 265.84C149.437 265.993 149.577 266.24 149.67 266.58L149.71 266.59L149.93 265.7ZM148.58 266.02C148.36 266.02 148.143 266.1 147.93 266.26C147.723 266.413 147.537 266.617 147.37 266.87C147.203 267.123 147.07 267.413 146.97 267.74C146.87 268.06 146.82 268.39 146.82 268.73C146.82 269.43 147.043 269.78 147.49 269.78C147.703 269.78 147.92 269.7 148.14 269.54C148.36 269.373 148.557 269.16 148.73 268.9C148.91 268.64 149.057 268.35 149.17 268.03C149.283 267.703 149.34 267.38 149.34 267.06C149.34 266.733 149.273 266.48 149.14 266.3C149.007 266.113 148.82 266.02 148.58 266.02ZM155.423 271.02C155.423 271.853 155.246 272.49 154.893 272.93C154.546 273.377 154.04 273.6 153.373 273.6C152.946 273.6 152.6 273.513 152.333 273.34C152.06 273.173 151.923 272.95 151.923 272.67C151.923 272.517 151.97 272.4 152.063 272.32C152.15 272.24 152.273 272.2 152.433 272.2C152.553 272.2 152.646 272.227 152.713 272.28C152.773 272.34 152.853 272.47 152.953 272.67C153.046 272.87 153.133 273.003 153.213 273.07C153.293 273.137 153.416 273.17 153.583 273.17C153.903 273.17 154.126 273.06 154.253 272.84C154.38 272.62 154.443 272.233 154.443 271.68V268.2C154.443 267.813 154.436 267.497 154.423 267.25C154.416 266.997 154.4 266.823 154.373 266.73C154.34 266.577 154.263 266.473 154.143 266.42C154.023 266.36 153.796 266.33 153.463 266.33V265.98L155.423 265.6V271.02ZM154.293 263.57C154.293 263.397 154.353 263.25 154.473 263.13C154.593 263.01 154.74 262.95 154.913 262.95C155.086 262.95 155.233 263.01 155.353 263.13C155.473 263.25 155.533 263.397 155.533 263.57C155.533 263.743 155.473 263.89 155.353 264.01C155.233 264.13 155.086 264.19 154.913 264.19C154.74 264.19 154.593 264.13 154.473 264.01C154.353 263.89 154.293 263.743 154.293 263.57ZM160.96 267.3C160.96 267.027 160.953 266.813 160.94 266.66C160.927 266.5 160.89 266.38 160.83 266.3C160.777 266.213 160.693 266.157 160.58 266.13C160.473 266.097 160.323 266.07 160.13 266.05V265.7H161.94V268.77C161.94 269.15 161.943 269.46 161.95 269.7C161.963 269.94 161.98 270.12 162 270.24C162.013 270.327 162.033 270.397 162.06 270.45C162.093 270.497 162.14 270.537 162.2 270.57C162.26 270.597 162.337 270.617 162.43 270.63C162.53 270.637 162.657 270.64 162.81 270.64V270.99L161.16 271.11L161.05 269.91H161.01C160.757 270.323 160.463 270.627 160.13 270.82C159.803 271.007 159.46 271.1 159.1 271.1C158.82 271.1 158.547 271.047 158.28 270.94C158.02 270.833 157.823 270.69 157.69 270.51C157.577 270.363 157.493 270.16 157.44 269.9C157.393 269.64 157.37 269.303 157.37 268.89V267.3C157.37 267.027 157.363 266.813 157.35 266.66C157.337 266.5 157.3 266.38 157.24 266.3C157.187 266.213 157.103 266.157 156.99 266.13C156.883 266.097 156.733 266.07 156.54 266.05V265.7H158.35V268.43C158.35 269.157 158.433 269.683 158.6 270.01C158.773 270.337 159.047 270.5 159.42 270.5C160.007 270.5 160.463 270.117 160.79 269.35C160.823 269.27 160.85 269.197 160.87 269.13C160.89 269.063 160.907 268.99 160.92 268.91C160.933 268.83 160.943 268.74 160.95 268.64C160.957 268.54 160.96 268.42 160.96 268.28V267.3ZM165.189 269.43C165.189 269.703 165.196 269.92 165.209 270.08C165.223 270.233 165.256 270.353 165.309 270.44C165.369 270.52 165.453 270.573 165.559 270.6C165.673 270.627 165.826 270.647 166.019 270.66V271H163.399V270.66C163.586 270.647 163.733 270.627 163.839 270.6C163.953 270.573 164.039 270.52 164.099 270.44C164.159 270.36 164.196 270.247 164.209 270.1C164.229 269.953 164.239 269.753 164.239 269.5V268.17C164.239 267.377 164.219 266.893 164.179 266.72C164.159 266.633 164.133 266.563 164.099 266.51C164.073 266.45 164.029 266.407 163.969 266.38C163.909 266.347 163.833 266.327 163.739 266.32C163.646 266.307 163.526 266.3 163.379 266.3V265.98L164.979 265.6L165.099 266.59H165.139C165.393 266.277 165.689 266.033 166.029 265.86C166.369 265.687 166.739 265.6 167.139 265.6C167.446 265.6 167.726 265.65 167.979 265.75C168.233 265.85 168.426 265.987 168.559 266.16C168.673 266.313 168.753 266.513 168.799 266.76C168.846 267 168.869 267.333 168.869 267.76V269.43C168.869 269.703 168.876 269.92 168.889 270.08C168.909 270.233 168.946 270.353 168.999 270.44C169.053 270.52 169.133 270.573 169.239 270.6C169.353 270.627 169.499 270.647 169.679 270.66V271H167.089V270.66C167.276 270.653 167.423 270.637 167.529 270.61C167.643 270.577 167.726 270.52 167.779 270.44C167.839 270.36 167.876 270.247 167.889 270.1C167.909 269.947 167.919 269.747 167.919 269.5V268.18C167.919 267.8 167.899 267.48 167.859 267.22C167.819 266.96 167.753 266.75 167.659 266.59C167.573 266.43 167.456 266.317 167.309 266.25C167.163 266.177 166.986 266.14 166.779 266.14C166.479 266.14 166.203 266.22 165.949 266.38C165.703 266.533 165.509 266.747 165.369 267.02C165.336 267.087 165.306 267.15 165.279 267.21C165.259 267.27 165.243 267.34 165.229 267.42C165.216 267.5 165.206 267.593 165.199 267.7C165.193 267.8 165.189 267.93 165.189 268.09V269.43ZM170.784 271H170.564V269.28H170.814C171.074 270.22 171.547 270.69 172.234 270.69C172.5 270.69 172.71 270.627 172.864 270.5C173.024 270.367 173.104 270.167 173.104 269.9C173.104 269.8 173.087 269.717 173.054 269.65C173.027 269.577 172.97 269.503 172.884 269.43C172.804 269.35 172.687 269.26 172.534 269.16C172.387 269.06 172.19 268.933 171.944 268.78C171.717 268.64 171.52 268.51 171.354 268.39C171.187 268.27 171.047 268.15 170.934 268.03C170.82 267.903 170.734 267.77 170.674 267.63C170.62 267.49 170.594 267.327 170.594 267.14C170.594 266.913 170.63 266.707 170.704 266.52C170.784 266.327 170.89 266.163 171.024 266.03C171.157 265.897 171.314 265.793 171.494 265.72C171.674 265.64 171.87 265.6 172.084 265.6C172.264 265.6 172.45 265.63 172.644 265.69C172.837 265.743 173.007 265.817 173.154 265.91L173.354 265.7H173.544V267.14H173.284C173.137 266.733 172.977 266.443 172.804 266.27C172.63 266.097 172.417 266.01 172.164 266.01C171.937 266.01 171.754 266.07 171.614 266.19C171.48 266.31 171.414 266.477 171.414 266.69C171.414 266.803 171.43 266.903 171.464 266.99C171.504 267.07 171.564 267.15 171.644 267.23C171.724 267.31 171.824 267.393 171.944 267.48C172.07 267.56 172.22 267.653 172.394 267.76C172.68 267.94 172.924 268.1 173.124 268.24C173.33 268.38 173.497 268.52 173.624 268.66C173.75 268.793 173.844 268.933 173.904 269.08C173.964 269.227 173.994 269.393 173.994 269.58C173.994 270.053 173.84 270.427 173.534 270.7C173.227 270.967 172.824 271.1 172.324 271.1C171.804 271.1 171.357 270.95 170.984 270.65L170.784 271ZM179.095 267.3C179.095 267.027 179.088 266.813 179.075 266.66C179.062 266.5 179.025 266.38 178.965 266.3C178.912 266.213 178.828 266.157 178.715 266.13C178.608 266.097 178.458 266.07 178.265 266.05V265.7H180.075V268.77C180.075 269.15 180.078 269.46 180.085 269.7C180.098 269.94 180.115 270.12 180.135 270.24C180.148 270.327 180.168 270.397 180.195 270.45C180.228 270.497 180.275 270.537 180.335 270.57C180.395 270.597 180.472 270.617 180.565 270.63C180.665 270.637 180.792 270.64 180.945 270.64V270.99L179.295 271.11L179.185 269.91H179.145C178.892 270.323 178.598 270.627 178.265 270.82C177.938 271.007 177.595 271.1 177.235 271.1C176.955 271.1 176.682 271.047 176.415 270.94C176.155 270.833 175.958 270.69 175.825 270.51C175.712 270.363 175.628 270.16 175.575 269.9C175.528 269.64 175.505 269.303 175.505 268.89V267.3C175.505 267.027 175.498 266.813 175.485 266.66C175.472 266.5 175.435 266.38 175.375 266.3C175.322 266.213 175.238 266.157 175.125 266.13C175.018 266.097 174.868 266.07 174.675 266.05V265.7H176.485V268.43C176.485 269.157 176.568 269.683 176.735 270.01C176.908 270.337 177.182 270.5 177.555 270.5C178.142 270.5 178.598 270.117 178.925 269.35C178.958 269.27 178.985 269.197 179.005 269.13C179.025 269.063 179.042 268.99 179.055 268.91C179.068 268.83 179.078 268.74 179.085 268.64C179.092 268.54 179.095 268.42 179.095 268.28V267.3ZM183.324 269.43C183.324 269.703 183.331 269.92 183.344 270.08C183.357 270.233 183.391 270.353 183.444 270.44C183.504 270.52 183.587 270.573 183.694 270.6C183.807 270.627 183.961 270.647 184.154 270.66V271H181.534V270.66C181.721 270.647 181.867 270.627 181.974 270.6C182.087 270.573 182.174 270.52 182.234 270.44C182.294 270.36 182.331 270.247 182.344 270.1C182.364 269.953 182.374 269.753 182.374 269.5V268.17C182.374 267.377 182.354 266.893 182.314 266.72C182.294 266.633 182.267 266.563 182.234 266.51C182.207 266.45 182.164 266.407 182.104 266.38C182.044 266.347 181.967 266.327 181.874 266.32C181.781 266.307 181.661 266.3 181.514 266.3V265.98L183.114 265.6L183.234 266.59H183.274C183.527 266.277 183.824 266.033 184.164 265.86C184.504 265.687 184.874 265.6 185.274 265.6C185.581 265.6 185.861 265.65 186.114 265.75C186.367 265.85 186.561 265.987 186.694 266.16C186.807 266.313 186.887 266.513 186.934 266.76C186.981 267 187.004 267.333 187.004 267.76V269.43C187.004 269.703 187.011 269.92 187.024 270.08C187.044 270.233 187.081 270.353 187.134 270.44C187.187 270.52 187.267 270.573 187.374 270.6C187.487 270.627 187.634 270.647 187.814 270.66V271H185.224V270.66C185.411 270.653 185.557 270.637 185.664 270.61C185.777 270.577 185.861 270.52 185.914 270.44C185.974 270.36 186.011 270.247 186.024 270.1C186.044 269.947 186.054 269.747 186.054 269.5V268.18C186.054 267.8 186.034 267.48 185.994 267.22C185.954 266.96 185.887 266.75 185.794 266.59C185.707 266.43 185.591 266.317 185.444 266.25C185.297 266.177 185.121 266.14 184.914 266.14C184.614 266.14 184.337 266.22 184.084 266.38C183.837 266.533 183.644 266.747 183.504 267.02C183.471 267.087 183.441 267.15 183.414 267.21C183.394 267.27 183.377 267.34 183.364 267.42C183.351 267.5 183.341 267.593 183.334 267.7C183.327 267.8 183.324 267.93 183.324 268.09V269.43ZM190.799 268.85C191.079 268.85 191.295 268.723 191.449 268.47C191.609 268.217 191.689 267.86 191.689 267.4C191.689 266.947 191.609 266.597 191.449 266.35C191.295 266.097 191.075 265.97 190.789 265.97C190.502 265.97 190.272 266.097 190.099 266.35C189.932 266.603 189.849 266.95 189.849 267.39C189.849 267.83 189.935 268.183 190.109 268.45C190.282 268.717 190.512 268.85 190.799 268.85ZM190.249 270.02C190.409 270.033 190.555 270.047 190.689 270.06C190.822 270.073 190.952 270.087 191.079 270.1C191.212 270.113 191.342 270.13 191.469 270.15C191.602 270.17 191.745 270.19 191.899 270.21C192.379 270.283 192.762 270.47 193.049 270.77C193.342 271.063 193.489 271.433 193.489 271.88C193.489 272.44 193.265 272.867 192.819 273.16C192.379 273.453 191.739 273.6 190.899 273.6C190.525 273.6 190.182 273.567 189.869 273.5C189.562 273.433 189.299 273.337 189.079 273.21C188.859 273.09 188.685 272.943 188.559 272.77C188.439 272.597 188.379 272.407 188.379 272.2C188.379 272.06 188.402 271.93 188.449 271.81C188.495 271.69 188.559 271.583 188.639 271.49C188.719 271.403 188.812 271.333 188.919 271.28C189.032 271.227 189.149 271.2 189.269 271.2C189.495 271.2 189.699 271.27 189.879 271.41C189.699 271.45 189.552 271.547 189.439 271.7C189.325 271.86 189.269 272.04 189.269 272.24C189.269 272.533 189.412 272.76 189.699 272.92C189.992 273.08 190.405 273.16 190.939 273.16C192.079 273.16 192.649 272.81 192.649 272.11C192.649 271.843 192.559 271.62 192.379 271.44C192.199 271.267 191.985 271.163 191.739 271.13C191.579 271.11 191.412 271.087 191.239 271.06C191.072 271.04 190.905 271.02 190.739 271C190.579 270.98 190.429 270.963 190.289 270.95C190.149 270.937 190.035 270.923 189.949 270.91C189.575 270.87 189.292 270.77 189.099 270.61C188.905 270.45 188.809 270.23 188.809 269.95C188.809 269.717 188.905 269.51 189.099 269.33C189.292 269.15 189.535 269.037 189.829 268.99V268.95C189.682 268.89 189.545 268.807 189.419 268.7C189.292 268.587 189.182 268.46 189.089 268.32C189.002 268.18 188.932 268.03 188.879 267.87C188.825 267.703 188.799 267.533 188.799 267.36C188.799 267.107 188.845 266.873 188.939 266.66C189.039 266.447 189.175 266.263 189.349 266.11C189.529 265.95 189.739 265.827 189.979 265.74C190.219 265.647 190.482 265.6 190.769 265.6C191.062 265.6 191.339 265.647 191.599 265.74C191.859 265.827 192.082 265.957 192.269 266.13C192.495 265.943 192.695 265.81 192.869 265.73C193.042 265.643 193.205 265.6 193.359 265.6C193.599 265.6 193.789 265.657 193.929 265.77C194.075 265.877 194.149 266.023 194.149 266.21C194.149 266.323 194.109 266.413 194.029 266.48C193.955 266.547 193.862 266.58 193.749 266.58C193.655 266.58 193.579 266.563 193.519 266.53C193.459 266.497 193.402 266.463 193.349 266.43C193.302 266.39 193.252 266.353 193.199 266.32C193.145 266.287 193.079 266.27 192.999 266.27C192.839 266.27 192.675 266.327 192.509 266.44C192.669 266.687 192.749 266.997 192.749 267.37C192.749 267.937 192.572 268.383 192.219 268.71C191.865 269.03 191.335 269.217 190.629 269.27C190.222 269.303 189.939 269.347 189.779 269.4C189.619 269.453 189.539 269.55 189.539 269.69C189.539 269.797 189.599 269.877 189.719 269.93C189.839 269.977 190.015 270.007 190.249 270.02ZM197.515 266.42C197.835 266.173 198.068 265.923 198.215 265.67C198.362 265.41 198.435 265.13 198.435 264.83C198.435 264.517 198.365 264.27 198.225 264.09C198.085 263.903 197.898 263.81 197.665 263.81C197.225 263.81 197.005 264.147 197.005 264.82C197.005 265.113 197.048 265.397 197.135 265.67C197.222 265.937 197.348 266.187 197.515 266.42ZM196.945 267.36C196.525 267.6 196.198 267.883 195.965 268.21C195.732 268.53 195.615 268.863 195.615 269.21C195.615 269.577 195.732 269.88 195.965 270.12C196.205 270.353 196.512 270.47 196.885 270.47C197.165 270.47 197.465 270.4 197.785 270.26C198.105 270.12 198.408 269.923 198.695 269.67L196.945 267.36ZM199.415 268.91C199.575 268.71 199.722 268.517 199.855 268.33C199.995 268.137 200.115 267.957 200.215 267.79C200.315 267.617 200.392 267.46 200.445 267.32C200.498 267.18 200.525 267.067 200.525 266.98C200.525 266.873 200.475 266.797 200.375 266.75C200.282 266.703 200.128 266.68 199.915 266.68V266.33H202.215V266.68C202.068 266.68 201.942 266.69 201.835 266.71C201.735 266.723 201.645 266.75 201.565 266.79C201.485 266.83 201.408 266.883 201.335 266.95C201.268 267.017 201.202 267.103 201.135 267.21L199.715 269.29C199.995 269.67 200.285 269.96 200.585 270.16C200.892 270.353 201.195 270.45 201.495 270.45C201.582 270.45 201.658 270.443 201.725 270.43C201.792 270.41 201.852 270.38 201.905 270.34C201.965 270.293 202.018 270.233 202.065 270.16C202.118 270.087 202.172 269.993 202.225 269.88L202.475 269.95C202.402 270.323 202.238 270.61 201.985 270.81C201.732 271.003 201.402 271.1 200.995 271.1C200.828 271.1 200.668 271.08 200.515 271.04C200.368 271.007 200.218 270.947 200.065 270.86C199.912 270.773 199.748 270.66 199.575 270.52C199.402 270.38 199.212 270.207 199.005 270C198.672 270.347 198.285 270.617 197.845 270.81C197.412 271.003 196.968 271.1 196.515 271.1C196.208 271.1 195.925 271.057 195.665 270.97C195.412 270.877 195.192 270.753 195.005 270.6C194.818 270.44 194.672 270.253 194.565 270.04C194.458 269.82 194.405 269.583 194.405 269.33C194.405 268.877 194.585 268.46 194.945 268.08C195.305 267.693 195.882 267.307 196.675 266.92C196.462 266.607 196.305 266.313 196.205 266.04C196.112 265.767 196.065 265.48 196.065 265.18C196.065 264.887 196.105 264.62 196.185 264.38C196.272 264.133 196.392 263.923 196.545 263.75C196.698 263.577 196.882 263.443 197.095 263.35C197.308 263.25 197.545 263.2 197.805 263.2C198.032 263.2 198.238 263.237 198.425 263.31C198.618 263.383 198.785 263.487 198.925 263.62C199.065 263.753 199.172 263.91 199.245 264.09C199.325 264.27 199.365 264.47 199.365 264.69C199.365 265.063 199.242 265.413 198.995 265.74C198.755 266.067 198.355 266.42 197.795 266.8L199.415 268.91ZM207.664 270.16H207.624C207.384 270.5 207.128 270.743 206.854 270.89C206.588 271.03 206.271 271.1 205.904 271.1C205.524 271.1 205.174 271.033 204.854 270.9C204.541 270.76 204.268 270.57 204.034 270.33C203.808 270.083 203.628 269.79 203.494 269.45C203.368 269.11 203.304 268.74 203.304 268.34C203.304 267.947 203.368 267.583 203.494 267.25C203.628 266.91 203.808 266.62 204.034 266.38C204.268 266.133 204.544 265.943 204.864 265.81C205.184 265.67 205.531 265.6 205.904 265.6C206.224 265.6 206.508 265.653 206.754 265.76C207.008 265.867 207.251 266.037 207.484 266.27V265.25C207.484 264.87 207.478 264.553 207.464 264.3C207.458 264.047 207.444 263.873 207.424 263.78C207.391 263.633 207.298 263.53 207.144 263.47C206.991 263.41 206.741 263.38 206.394 263.38V263.08L208.444 262.7V268.47C208.444 268.93 208.448 269.31 208.454 269.61C208.461 269.903 208.481 270.113 208.514 270.24C208.534 270.32 208.558 270.387 208.584 270.44C208.618 270.493 208.661 270.537 208.714 270.57C208.774 270.597 208.851 270.617 208.944 270.63C209.044 270.643 209.171 270.65 209.324 270.65V270.99L207.664 271.1V270.16ZM207.464 267.95C207.464 267.603 207.444 267.34 207.404 267.16C207.371 266.98 207.301 266.823 207.194 266.69C207.041 266.49 206.844 266.34 206.604 266.24C206.371 266.133 206.138 266.08 205.904 266.08C205.424 266.08 205.058 266.28 204.804 266.68C204.558 267.073 204.434 267.61 204.434 268.29C204.434 268.643 204.464 268.963 204.524 269.25C204.591 269.537 204.684 269.783 204.804 269.99C204.931 270.19 205.084 270.347 205.264 270.46C205.451 270.567 205.664 270.62 205.904 270.62C206.024 270.62 206.144 270.607 206.264 270.58C206.391 270.553 206.511 270.513 206.624 270.46C206.744 270.4 206.854 270.333 206.954 270.26C207.054 270.18 207.138 270.09 207.204 269.99C207.298 269.843 207.364 269.667 207.404 269.46C207.444 269.253 207.464 268.97 207.464 268.61V267.95ZM212.822 265.6C213.202 265.6 213.562 265.67 213.902 265.81C214.242 265.943 214.539 266.13 214.792 266.37C215.052 266.61 215.256 266.897 215.402 267.23C215.556 267.557 215.632 267.917 215.632 268.31C215.632 268.717 215.556 269.09 215.402 269.43C215.256 269.77 215.052 270.063 214.792 270.31C214.539 270.557 214.242 270.75 213.902 270.89C213.562 271.03 213.202 271.1 212.822 271.1C212.449 271.1 212.092 271.033 211.752 270.9C211.419 270.76 211.126 270.567 210.872 270.32C210.619 270.073 210.419 269.78 210.272 269.44C210.126 269.093 210.052 268.717 210.052 268.31C210.052 267.917 210.126 267.553 210.272 267.22C210.419 266.887 210.619 266.6 210.872 266.36C211.126 266.12 211.419 265.933 211.752 265.8C212.092 265.667 212.449 265.6 212.822 265.6ZM212.822 266.08C212.576 266.08 212.349 266.133 212.142 266.24C211.942 266.347 211.769 266.5 211.622 266.7C211.482 266.893 211.372 267.13 211.292 267.41C211.219 267.683 211.182 267.987 211.182 268.32C211.182 268.667 211.219 268.98 211.292 269.26C211.372 269.54 211.482 269.78 211.622 269.98C211.769 270.173 211.942 270.323 212.142 270.43C212.342 270.537 212.569 270.59 212.822 270.59C213.076 270.59 213.306 270.537 213.512 270.43C213.719 270.323 213.896 270.17 214.042 269.97C214.189 269.77 214.302 269.53 214.382 269.25C214.462 268.97 214.502 268.66 214.502 268.32C214.502 267.987 214.462 267.683 214.382 267.41C214.302 267.137 214.189 266.903 214.042 266.71C213.896 266.51 213.719 266.357 213.512 266.25C213.306 266.137 213.076 266.08 212.822 266.08ZM218.73 272.57C218.423 273.257 217.947 273.6 217.3 273.6C216.88 273.6 216.67 273.443 216.67 273.13C216.67 272.963 216.727 272.84 216.84 272.76C216.96 272.687 217.177 272.623 217.49 272.57C217.63 272.55 217.75 272.52 217.85 272.48C217.95 272.447 218.04 272.4 218.12 272.34C218.2 272.287 218.27 272.217 218.33 272.13C218.397 272.043 218.46 271.937 218.52 271.81L218.87 271.11L216.95 266.94C216.863 266.753 216.787 266.607 216.72 266.5C216.66 266.387 216.593 266.3 216.52 266.24C216.453 266.173 216.377 266.13 216.29 266.11C216.203 266.083 216.093 266.063 215.96 266.05V265.7H218.61V266.05C218.163 266.05 217.94 266.16 217.94 266.38C217.94 266.467 217.967 266.603 218.02 266.79C218.073 266.977 218.14 267.167 218.22 267.36L219.32 270.02H219.37L220.28 267.77C220.367 267.55 220.437 267.37 220.49 267.23C220.55 267.09 220.593 266.977 220.62 266.89C220.653 266.797 220.673 266.72 220.68 266.66C220.693 266.6 220.7 266.543 220.7 266.49C220.7 266.317 220.65 266.2 220.55 266.14C220.457 266.08 220.273 266.05 220 266.05V265.7H222.2V266.05C222.073 266.05 221.967 266.067 221.88 266.1C221.793 266.133 221.703 266.21 221.61 266.33C221.523 266.443 221.423 266.61 221.31 266.83C221.203 267.05 221.07 267.347 220.91 267.72L218.73 272.57ZM225.342 265.6C225.722 265.6 226.082 265.67 226.422 265.81C226.762 265.943 227.058 266.13 227.312 266.37C227.572 266.61 227.775 266.897 227.922 267.23C228.075 267.557 228.152 267.917 228.152 268.31C228.152 268.717 228.075 269.09 227.922 269.43C227.775 269.77 227.572 270.063 227.312 270.31C227.058 270.557 226.762 270.75 226.422 270.89C226.082 271.03 225.722 271.1 225.342 271.1C224.968 271.1 224.612 271.033 224.272 270.9C223.938 270.76 223.645 270.567 223.392 270.32C223.138 270.073 222.938 269.78 222.792 269.44C222.645 269.093 222.572 268.717 222.572 268.31C222.572 267.917 222.645 267.553 222.792 267.22C222.938 266.887 223.138 266.6 223.392 266.36C223.645 266.12 223.938 265.933 224.272 265.8C224.612 265.667 224.968 265.6 225.342 265.6ZM225.342 266.08C225.095 266.08 224.868 266.133 224.662 266.24C224.462 266.347 224.288 266.5 224.142 266.7C224.002 266.893 223.892 267.13 223.812 267.41C223.738 267.683 223.702 267.987 223.702 268.32C223.702 268.667 223.738 268.98 223.812 269.26C223.892 269.54 224.002 269.78 224.142 269.98C224.288 270.173 224.462 270.323 224.662 270.43C224.862 270.537 225.088 270.59 225.342 270.59C225.595 270.59 225.825 270.537 226.032 270.43C226.238 270.323 226.415 270.17 226.562 269.97C226.708 269.77 226.822 269.53 226.902 269.25C226.982 268.97 227.022 268.66 227.022 268.32C227.022 267.987 226.982 267.683 226.902 267.41C226.822 267.137 226.708 266.903 226.562 266.71C226.415 266.51 226.238 266.357 226.032 266.25C225.825 266.137 225.595 266.08 225.342 266.08ZM233.265 267.3C233.265 267.027 233.258 266.813 233.245 266.66C233.231 266.5 233.195 266.38 233.135 266.3C233.081 266.213 232.998 266.157 232.885 266.13C232.778 266.097 232.628 266.07 232.435 266.05V265.7H234.245V268.77C234.245 269.15 234.248 269.46 234.255 269.7C234.268 269.94 234.285 270.12 234.305 270.24C234.318 270.327 234.338 270.397 234.365 270.45C234.398 270.497 234.445 270.537 234.505 270.57C234.565 270.597 234.641 270.617 234.735 270.63C234.835 270.637 234.961 270.64 235.115 270.64V270.99L233.465 271.11L233.355 269.91H233.315C233.061 270.323 232.768 270.627 232.435 270.82C232.108 271.007 231.765 271.1 231.405 271.1C231.125 271.1 230.851 271.047 230.585 270.94C230.325 270.833 230.128 270.69 229.995 270.51C229.881 270.363 229.798 270.16 229.745 269.9C229.698 269.64 229.675 269.303 229.675 268.89V267.3C229.675 267.027 229.668 266.813 229.655 266.66C229.641 266.5 229.605 266.38 229.545 266.3C229.491 266.213 229.408 266.157 229.295 266.13C229.188 266.097 229.038 266.07 228.845 266.05V265.7H230.655V268.43C230.655 269.157 230.738 269.683 230.905 270.01C231.078 270.337 231.351 270.5 231.725 270.5C232.311 270.5 232.768 270.117 233.095 269.35C233.128 269.27 233.155 269.197 233.175 269.13C233.195 269.063 233.211 268.99 233.225 268.91C233.238 268.83 233.248 268.74 233.255 268.64C233.261 268.54 233.265 268.42 233.265 268.28V267.3ZM237.494 269.43C237.494 269.703 237.501 269.92 237.514 270.08C237.527 270.233 237.561 270.353 237.614 270.44C237.674 270.52 237.757 270.573 237.864 270.6C237.977 270.627 238.131 270.647 238.324 270.66V271H235.704V270.66C235.891 270.647 236.037 270.627 236.144 270.6C236.257 270.573 236.344 270.52 236.404 270.44C236.464 270.36 236.501 270.247 236.514 270.1C236.534 269.953 236.544 269.753 236.544 269.5V268.17C236.544 267.377 236.524 266.893 236.484 266.72C236.464 266.633 236.437 266.563 236.404 266.51C236.377 266.45 236.334 266.407 236.274 266.38C236.214 266.347 236.137 266.327 236.044 266.32C235.951 266.307 235.831 266.3 235.684 266.3V265.98L237.284 265.6L237.404 266.59H237.444C237.697 266.277 237.994 266.033 238.334 265.86C238.674 265.687 239.044 265.6 239.444 265.6C239.751 265.6 240.031 265.65 240.284 265.75C240.537 265.85 240.731 265.987 240.864 266.16C240.977 266.313 241.057 266.513 241.104 266.76C241.151 267 241.174 267.333 241.174 267.76V269.43C241.174 269.703 241.181 269.92 241.194 270.08C241.214 270.233 241.251 270.353 241.304 270.44C241.357 270.52 241.437 270.573 241.544 270.6C241.657 270.627 241.804 270.647 241.984 270.66V271H239.394V270.66C239.581 270.653 239.727 270.637 239.834 270.61C239.947 270.577 240.031 270.52 240.084 270.44C240.144 270.36 240.181 270.247 240.194 270.1C240.214 269.947 240.224 269.747 240.224 269.5V268.18C240.224 267.8 240.204 267.48 240.164 267.22C240.124 266.96 240.057 266.75 239.964 266.59C239.877 266.43 239.761 266.317 239.614 266.25C239.467 266.177 239.291 266.14 239.084 266.14C238.784 266.14 238.507 266.22 238.254 266.38C238.007 266.533 237.814 266.747 237.674 267.02C237.641 267.087 237.611 267.15 237.584 267.21C237.564 267.27 237.547 267.34 237.534 267.42C237.521 267.5 237.511 267.593 237.504 267.7C237.497 267.8 237.494 267.93 237.494 268.09V269.43ZM244.969 268.85C245.249 268.85 245.465 268.723 245.619 268.47C245.779 268.217 245.859 267.86 245.859 267.4C245.859 266.947 245.779 266.597 245.619 266.35C245.465 266.097 245.245 265.97 244.959 265.97C244.672 265.97 244.442 266.097 244.269 266.35C244.102 266.603 244.019 266.95 244.019 267.39C244.019 267.83 244.105 268.183 244.279 268.45C244.452 268.717 244.682 268.85 244.969 268.85ZM244.419 270.02C244.579 270.033 244.725 270.047 244.859 270.06C244.992 270.073 245.122 270.087 245.249 270.1C245.382 270.113 245.512 270.13 245.639 270.15C245.772 270.17 245.915 270.19 246.069 270.21C246.549 270.283 246.932 270.47 247.219 270.77C247.512 271.063 247.659 271.433 247.659 271.88C247.659 272.44 247.435 272.867 246.989 273.16C246.549 273.453 245.909 273.6 245.069 273.6C244.695 273.6 244.352 273.567 244.039 273.5C243.732 273.433 243.469 273.337 243.249 273.21C243.029 273.09 242.855 272.943 242.729 272.77C242.609 272.597 242.549 272.407 242.549 272.2C242.549 272.06 242.572 271.93 242.619 271.81C242.665 271.69 242.729 271.583 242.809 271.49C242.889 271.403 242.982 271.333 243.089 271.28C243.202 271.227 243.319 271.2 243.439 271.2C243.665 271.2 243.869 271.27 244.049 271.41C243.869 271.45 243.722 271.547 243.609 271.7C243.495 271.86 243.439 272.04 243.439 272.24C243.439 272.533 243.582 272.76 243.869 272.92C244.162 273.08 244.575 273.16 245.109 273.16C246.249 273.16 246.819 272.81 246.819 272.11C246.819 271.843 246.729 271.62 246.549 271.44C246.369 271.267 246.155 271.163 245.909 271.13C245.749 271.11 245.582 271.087 245.409 271.06C245.242 271.04 245.075 271.02 244.909 271C244.749 270.98 244.599 270.963 244.459 270.95C244.319 270.937 244.205 270.923 244.119 270.91C243.745 270.87 243.462 270.77 243.269 270.61C243.075 270.45 242.979 270.23 242.979 269.95C242.979 269.717 243.075 269.51 243.269 269.33C243.462 269.15 243.705 269.037 243.999 268.99V268.95C243.852 268.89 243.715 268.807 243.589 268.7C243.462 268.587 243.352 268.46 243.259 268.32C243.172 268.18 243.102 268.03 243.049 267.87C242.995 267.703 242.969 267.533 242.969 267.36C242.969 267.107 243.015 266.873 243.109 266.66C243.209 266.447 243.345 266.263 243.519 266.11C243.699 265.95 243.909 265.827 244.149 265.74C244.389 265.647 244.652 265.6 244.939 265.6C245.232 265.6 245.509 265.647 245.769 265.74C246.029 265.827 246.252 265.957 246.439 266.13C246.665 265.943 246.865 265.81 247.039 265.73C247.212 265.643 247.375 265.6 247.529 265.6C247.769 265.6 247.959 265.657 248.099 265.77C248.245 265.877 248.319 266.023 248.319 266.21C248.319 266.323 248.279 266.413 248.199 266.48C248.125 266.547 248.032 266.58 247.919 266.58C247.825 266.58 247.749 266.563 247.689 266.53C247.629 266.497 247.572 266.463 247.519 266.43C247.472 266.39 247.422 266.353 247.369 266.32C247.315 266.287 247.249 266.27 247.169 266.27C247.009 266.27 246.845 266.327 246.679 266.44C246.839 266.687 246.919 266.997 246.919 267.37C246.919 267.937 246.742 268.383 246.389 268.71C246.035 269.03 245.505 269.217 244.799 269.27C244.392 269.303 244.109 269.347 243.949 269.4C243.789 269.453 243.709 269.55 243.709 269.69C243.709 269.797 243.769 269.877 243.889 269.93C244.009 269.977 244.185 270.007 244.419 270.02Z" fill="#0A0909"/>
<rect x="104" y="125" width="185" height="39" rx="10" fill="#0A0909"/>
<path d="M139.278 140.592H140.216V141.124C140.216 141.861 140.071 142.547 139.782 143.182C139.493 143.807 139.082 144.358 138.55 144.834C138.027 145.301 137.411 145.655 136.702 145.898L136.142 144.988C136.767 144.783 137.313 144.489 137.78 144.106C138.247 143.714 138.611 143.261 138.872 142.748C139.143 142.235 139.278 141.693 139.278 141.124V140.592ZM139.474 140.592H140.426V141.124C140.426 141.516 140.501 141.894 140.65 142.258C140.809 142.622 141.028 142.963 141.308 143.28C141.588 143.588 141.924 143.859 142.316 144.092C142.708 144.325 143.137 144.512 143.604 144.652L143.058 145.562C142.349 145.347 141.723 145.025 141.182 144.596C140.65 144.157 140.23 143.644 139.922 143.056C139.623 142.459 139.474 141.815 139.474 141.124V140.592ZM136.464 139.948H143.226V140.886H136.464V139.948ZM139.278 138.366H140.44V140.284H139.278V138.366ZM142.834 142.034H145.69V142.986H142.834V142.034ZM145.368 138.422H146.53V146.094H145.368V138.422ZM142.358 146.43C143.674 146.43 144.705 146.635 145.452 147.046C146.199 147.447 146.572 148.012 146.572 148.74C146.572 149.468 146.199 150.037 145.452 150.448C144.705 150.859 143.674 151.064 142.358 151.064C141.051 151.064 140.02 150.859 139.264 150.448C138.517 150.037 138.144 149.468 138.144 148.74C138.144 148.012 138.517 147.447 139.264 147.046C140.02 146.635 141.051 146.43 142.358 146.43ZM142.358 147.34C141.723 147.34 141.177 147.396 140.72 147.508C140.263 147.611 139.908 147.769 139.656 147.984C139.413 148.189 139.292 148.441 139.292 148.74C139.292 149.039 139.413 149.295 139.656 149.51C139.908 149.715 140.263 149.874 140.72 149.986C141.177 150.098 141.723 150.154 142.358 150.154C143.002 150.154 143.548 150.098 143.996 149.986C144.453 149.874 144.803 149.715 145.046 149.51C145.298 149.295 145.424 149.039 145.424 148.74C145.424 148.441 145.298 148.189 145.046 147.984C144.803 147.769 144.453 147.611 143.996 147.508C143.548 147.396 143.002 147.34 142.358 147.34ZM152.157 140.452H153.095V140.984C153.095 141.693 152.946 142.351 152.647 142.958C152.358 143.565 151.942 144.087 151.401 144.526C150.869 144.965 150.248 145.296 149.539 145.52L148.993 144.61C149.618 144.423 150.169 144.148 150.645 143.784C151.121 143.42 151.49 143 151.751 142.524C152.022 142.039 152.157 141.525 152.157 140.984V140.452ZM152.353 140.452H153.305V140.984C153.305 141.376 153.38 141.749 153.529 142.104C153.688 142.449 153.907 142.771 154.187 143.07C154.476 143.359 154.817 143.616 155.209 143.84C155.601 144.064 156.03 144.241 156.497 144.372L155.965 145.282C155.256 145.077 154.626 144.769 154.075 144.358C153.534 143.938 153.109 143.443 152.801 142.874C152.502 142.295 152.353 141.665 152.353 140.984V140.452ZM149.343 139.836H156.105V140.76H149.343V139.836ZM152.157 138.366H153.319V140.284H152.157V138.366ZM155.741 141.81H158.555V142.762H155.741V141.81ZM158.247 138.422H159.395V145.436H158.247V138.422ZM151.303 146.01H152.451V147.522H158.247V146.01H159.395V150.924H151.303V146.01ZM152.451 148.432V149.972H158.247V148.432H152.451ZM164.994 139.78H165.946V140.802C165.946 141.586 165.797 142.309 165.498 142.972C165.209 143.635 164.798 144.213 164.266 144.708C163.743 145.203 163.123 145.581 162.404 145.842L161.816 144.918C162.451 144.694 163.006 144.377 163.482 143.966C163.958 143.546 164.327 143.065 164.588 142.524C164.859 141.983 164.994 141.409 164.994 140.802V139.78ZM165.204 139.78H166.156V140.802C166.156 141.353 166.282 141.875 166.534 142.37C166.786 142.865 167.141 143.299 167.598 143.672C168.055 144.045 168.592 144.339 169.208 144.554L168.662 145.464C167.953 145.221 167.341 144.871 166.828 144.414C166.315 143.957 165.913 143.42 165.624 142.804C165.344 142.179 165.204 141.511 165.204 140.802V139.78ZM162.166 139.36H168.942V140.312H162.166V139.36ZM170.538 138.422H171.7V146.052H170.538V138.422ZM171.378 141.642H173.562V142.608H171.378V141.642ZM167.668 146.402C168.527 146.402 169.264 146.495 169.88 146.682C170.505 146.859 170.986 147.121 171.322 147.466C171.658 147.811 171.826 148.231 171.826 148.726C171.826 149.221 171.658 149.641 171.322 149.986C170.986 150.331 170.505 150.597 169.88 150.784C169.264 150.971 168.527 151.064 167.668 151.064C166.809 151.064 166.067 150.971 165.442 150.784C164.817 150.597 164.336 150.331 164 149.986C163.664 149.641 163.496 149.221 163.496 148.726C163.496 148.231 163.664 147.811 164 147.466C164.336 147.121 164.817 146.859 165.442 146.682C166.067 146.495 166.809 146.402 167.668 146.402ZM167.668 147.326C167.043 147.326 166.501 147.382 166.044 147.494C165.596 147.606 165.251 147.765 165.008 147.97C164.765 148.175 164.644 148.427 164.644 148.726C164.644 149.025 164.765 149.281 165.008 149.496C165.251 149.701 165.596 149.86 166.044 149.972C166.501 150.084 167.043 150.14 167.668 150.14C168.293 150.14 168.83 150.084 169.278 149.972C169.726 149.86 170.071 149.701 170.314 149.496C170.557 149.281 170.678 149.025 170.678 148.726C170.678 148.427 170.557 148.175 170.314 147.97C170.071 147.765 169.726 147.606 169.278 147.494C168.83 147.382 168.293 147.326 167.668 147.326ZM182.95 139.682H183.958V140.214C183.958 140.662 183.869 141.087 183.692 141.488C183.514 141.889 183.267 142.263 182.95 142.608C182.632 142.944 182.264 143.243 181.844 143.504C181.424 143.765 180.971 143.989 180.486 144.176C180.01 144.353 179.515 144.484 179.002 144.568L178.554 143.644C179.002 143.588 179.436 143.485 179.856 143.336C180.285 143.177 180.686 142.991 181.06 142.776C181.433 142.561 181.76 142.319 182.04 142.048C182.329 141.777 182.553 141.488 182.712 141.18C182.87 140.863 182.95 140.541 182.95 140.214V139.682ZM183.244 139.682H184.252V140.214C184.252 140.541 184.331 140.863 184.49 141.18C184.648 141.488 184.868 141.777 185.148 142.048C185.437 142.319 185.768 142.561 186.142 142.776C186.515 142.991 186.912 143.177 187.332 143.336C187.761 143.485 188.2 143.588 188.648 143.644L188.214 144.568C187.7 144.484 187.201 144.353 186.716 144.176C186.23 143.989 185.778 143.765 185.358 143.504C184.938 143.243 184.569 142.944 184.252 142.608C183.934 142.263 183.687 141.889 183.51 141.488C183.332 141.087 183.244 140.662 183.244 140.214V139.682ZM183.006 146.262H184.154V151.078H183.006V146.262ZM177.882 145.632H189.32V146.584H177.882V145.632ZM178.96 139.206H188.228V140.144H178.96V139.206ZM190.761 148.474H202.241V149.454H190.761V148.474ZM195.871 145.408H197.019V148.796H195.871V145.408ZM195.829 139.262H196.851V140.242C196.851 140.793 196.753 141.311 196.557 141.796C196.37 142.272 196.109 142.72 195.773 143.14C195.437 143.551 195.049 143.919 194.611 144.246C194.181 144.573 193.719 144.848 193.225 145.072C192.73 145.296 192.226 145.459 191.713 145.562L191.209 144.596C191.657 144.521 192.1 144.391 192.539 144.204C192.987 144.008 193.407 143.775 193.799 143.504C194.191 143.224 194.541 142.916 194.849 142.58C195.157 142.235 195.395 141.866 195.563 141.474C195.74 141.073 195.829 140.662 195.829 140.242V139.262ZM196.039 139.262H197.047V140.242C197.047 140.671 197.135 141.082 197.313 141.474C197.49 141.866 197.733 142.235 198.041 142.58C198.349 142.916 198.699 143.224 199.091 143.504C199.492 143.784 199.912 144.017 200.351 144.204C200.799 144.391 201.247 144.521 201.695 144.596L201.191 145.562C200.677 145.459 200.173 145.296 199.679 145.072C199.184 144.848 198.717 144.573 198.279 144.246C197.84 143.919 197.453 143.551 197.117 143.14C196.781 142.72 196.515 142.267 196.319 141.782C196.132 141.297 196.039 140.783 196.039 140.242V139.262ZM206.77 144.946H218.208V145.912H206.77V144.946ZM211.908 143.07H213.07V145.254H211.908V143.07ZM208.044 147.144H216.794V151.092H215.632V148.082H208.044V147.144ZM208.282 138.716H209.43V140.158H215.562V138.716H216.71V143.462H208.282V138.716ZM209.43 141.054V142.524H215.562V141.054H209.43ZM222.743 139.514H223.695V141.782C223.695 142.482 223.607 143.168 223.429 143.84C223.261 144.512 223.019 145.142 222.701 145.73C222.384 146.318 222.011 146.841 221.581 147.298C221.152 147.755 220.685 148.119 220.181 148.39L219.467 147.452C219.934 147.219 220.363 146.906 220.755 146.514C221.157 146.113 221.507 145.655 221.805 145.142C222.104 144.629 222.333 144.087 222.491 143.518C222.659 142.939 222.743 142.361 222.743 141.782V139.514ZM222.953 139.514H223.891V141.782C223.891 142.342 223.971 142.897 224.129 143.448C224.297 143.999 224.531 144.517 224.829 145.002C225.128 145.487 225.469 145.921 225.851 146.304C226.243 146.687 226.663 146.99 227.111 147.214L226.397 148.138C225.903 147.886 225.445 147.541 225.025 147.102C224.615 146.663 224.251 146.164 223.933 145.604C223.625 145.035 223.383 144.428 223.205 143.784C223.037 143.131 222.953 142.463 222.953 141.782V139.514ZM228.217 138.422H229.379V151.092H228.217V138.422ZM229.113 143.546H231.451V144.54H229.113V143.546ZM241.11 138.422H242.258V151.092H241.11V138.422ZM241.992 143.63H244.33V144.61H241.992V143.63ZM232.458 140.452H239.92V141.404H232.458V140.452ZM236.252 142.44C236.849 142.44 237.377 142.566 237.834 142.818C238.301 143.07 238.665 143.415 238.926 143.854C239.197 144.283 239.332 144.783 239.332 145.352C239.332 145.921 239.197 146.425 238.926 146.864C238.665 147.303 238.301 147.648 237.834 147.9C237.377 148.143 236.849 148.264 236.252 148.264C235.655 148.264 235.123 148.143 234.656 147.9C234.199 147.648 233.835 147.303 233.564 146.864C233.293 146.425 233.158 145.921 233.158 145.352C233.158 144.783 233.293 144.283 233.564 143.854C233.835 143.415 234.199 143.07 234.656 142.818C235.123 142.566 235.655 142.44 236.252 142.44ZM236.252 143.406C235.869 143.406 235.529 143.49 235.23 143.658C234.931 143.826 234.693 144.055 234.516 144.344C234.348 144.633 234.264 144.969 234.264 145.352C234.264 145.735 234.348 146.075 234.516 146.374C234.693 146.663 234.931 146.892 235.23 147.06C235.529 147.219 235.869 147.298 236.252 147.298C236.625 147.298 236.961 147.219 237.26 147.06C237.559 146.892 237.792 146.663 237.96 146.374C238.137 146.075 238.226 145.735 238.226 145.352C238.226 144.969 238.137 144.633 237.96 144.344C237.792 144.055 237.559 143.826 237.26 143.658C236.961 143.49 236.625 143.406 236.252 143.406ZM235.65 138.576H236.812V140.872H235.65V138.576ZM254.633 138.422H255.795V151.092H254.633V138.422ZM250.923 139.794H252.071C252.071 140.709 251.959 141.591 251.735 142.44C251.52 143.289 251.18 144.097 250.713 144.862C250.246 145.618 249.64 146.323 248.893 146.976C248.146 147.629 247.241 148.213 246.177 148.726L245.561 147.788C246.784 147.2 247.792 146.514 248.585 145.73C249.378 144.946 249.966 144.073 250.349 143.112C250.732 142.141 250.923 141.096 250.923 139.976V139.794ZM246.149 139.794H251.413V140.732H246.149V139.794Z" fill="white"/>
<rect x="104" y="71" width="185" height="39" rx="10" fill="#FFEA00"/>
<path d="M149.495 85.738H150.629C150.629 86.6527 150.54 87.5487 150.363 88.426C150.186 89.294 149.882 90.1247 149.453 90.918C149.024 91.702 148.436 92.4393 147.689 93.13C146.942 93.8207 146.004 94.446 144.875 95.006L144.231 94.11C145.239 93.6153 146.079 93.0693 146.751 92.472C147.423 91.8747 147.96 91.2307 148.361 90.54C148.762 89.8493 149.052 89.112 149.229 88.328C149.406 87.544 149.495 86.7227 149.495 85.864V85.738ZM144.931 85.738H150.195V86.69H144.931V85.738ZM149.327 88.874V89.784L144.469 90.246L144.287 89.224L149.327 88.874ZM152.687 84.422H153.849V97.078H152.687V84.422ZM153.541 89.56H155.865V90.526H153.541V89.56ZM162.374 85.738H163.508C163.508 86.6527 163.419 87.5487 163.242 88.426C163.065 89.294 162.761 90.1247 162.332 90.918C161.903 91.702 161.315 92.4393 160.568 93.13C159.821 93.8207 158.883 94.446 157.754 95.006L157.11 94.11C158.118 93.6153 158.958 93.0693 159.63 92.472C160.302 91.8747 160.839 91.2307 161.24 90.54C161.641 89.8493 161.931 89.112 162.108 88.328C162.285 87.544 162.374 86.7227 162.374 85.864V85.738ZM157.81 85.738H163.074V86.69H157.81V85.738ZM162.206 88.874V89.784L157.348 90.246L157.166 89.224L162.206 88.874ZM165.566 84.422H166.728V97.078H165.566V84.422ZM166.42 89.56H168.744V90.526H166.42V89.56ZM175.015 91.576H176.163V94.726H175.015V91.576ZM175.589 85.248C176.485 85.248 177.278 85.388 177.969 85.668C178.659 85.9387 179.201 86.3213 179.593 86.816C179.994 87.3107 180.195 87.894 180.195 88.566C180.195 89.238 179.994 89.826 179.593 90.33C179.201 90.8247 178.659 91.2073 177.969 91.478C177.278 91.7487 176.485 91.884 175.589 91.884C174.702 91.884 173.909 91.7487 173.209 91.478C172.518 91.2073 171.977 90.8247 171.585 90.33C171.193 89.826 170.997 89.238 170.997 88.566C170.997 87.894 171.193 87.3107 171.585 86.816C171.977 86.3213 172.518 85.9387 173.209 85.668C173.909 85.388 174.702 85.248 175.589 85.248ZM175.589 86.186C174.917 86.186 174.319 86.284 173.797 86.48C173.274 86.676 172.863 86.956 172.565 87.32C172.266 87.6747 172.117 88.09 172.117 88.566C172.117 89.042 172.266 89.462 172.565 89.826C172.863 90.19 173.274 90.47 173.797 90.666C174.319 90.862 174.917 90.96 175.589 90.96C176.261 90.96 176.858 90.862 177.381 90.666C177.903 90.47 178.314 90.19 178.613 89.826C178.921 89.462 179.075 89.042 179.075 88.566C179.075 88.09 178.921 87.6747 178.613 87.32C178.314 86.956 177.903 86.676 177.381 86.48C176.858 86.284 176.261 86.186 175.589 86.186ZM169.877 94.502H181.357V95.468H169.877V94.502ZM182.742 91.254H194.194V92.192H182.742V91.254ZM187.88 89.532H189.042V91.562H187.88V89.532ZM184.03 93.312H192.71V97.092H191.548V94.25H184.03V93.312ZM184.254 89.014H192.85V89.924H184.254V89.014ZM184.254 84.758H192.78V85.682H185.416V89.448H184.254V84.758ZM185.066 86.858H192.444V87.754H185.066V86.858ZM204.435 92.416C205.341 92.416 206.12 92.5093 206.773 92.696C207.436 92.8827 207.945 93.1487 208.299 93.494C208.663 93.8393 208.845 94.2593 208.845 94.754C208.845 95.23 208.663 95.6453 208.299 96C207.945 96.3453 207.436 96.6067 206.773 96.784C206.12 96.9707 205.341 97.064 204.435 97.064C203.539 97.064 202.76 96.9707 202.097 96.784C201.435 96.6067 200.926 96.3453 200.571 96C200.217 95.6453 200.039 95.23 200.039 94.754C200.039 94.2593 200.217 93.8393 200.571 93.494C200.926 93.1487 201.435 92.8827 202.097 92.696C202.76 92.5093 203.539 92.416 204.435 92.416ZM204.435 93.312C203.773 93.312 203.199 93.3727 202.713 93.494C202.228 93.606 201.85 93.7693 201.579 93.984C201.318 94.1987 201.187 94.4553 201.187 94.754C201.187 95.034 201.318 95.2813 201.579 95.496C201.85 95.7107 202.228 95.874 202.713 95.986C203.199 96.098 203.773 96.154 204.435 96.154C205.107 96.154 205.686 96.098 206.171 95.986C206.657 95.874 207.03 95.7107 207.291 95.496C207.562 95.2813 207.697 95.034 207.697 94.754C207.697 94.4553 207.562 94.1987 207.291 93.984C207.03 93.7693 206.657 93.606 206.171 93.494C205.686 93.3727 205.107 93.312 204.435 93.312ZM200.123 85.066H208.271V86.004H200.123V85.066ZM198.779 90.316H210.189V91.268H198.779V90.316ZM203.469 87.88H204.617V90.596H203.469V87.88ZM207.599 85.066H208.747V86.13C208.747 86.6433 208.733 87.1707 208.705 87.712C208.677 88.244 208.575 88.8367 208.397 89.49L207.263 89.364C207.431 88.7107 207.529 88.132 207.557 87.628C207.585 87.124 207.599 86.6247 207.599 86.13V85.066ZM214.584 92.262H215.774V97.092H214.584V92.262ZM218.938 92.262H220.114V97.092H218.938V92.262ZM211.63 91.632H223.11V92.584H211.63V91.632ZM217.342 84.926C218.229 84.926 219.004 85.0427 219.666 85.276C220.329 85.5 220.847 85.8173 221.22 86.228C221.594 86.6387 221.78 87.1287 221.78 87.698C221.78 88.2487 221.594 88.734 221.22 89.154C220.847 89.5647 220.329 89.882 219.666 90.106C219.004 90.33 218.229 90.442 217.342 90.442C216.474 90.442 215.704 90.33 215.032 90.106C214.37 89.882 213.852 89.5647 213.478 89.154C213.105 88.734 212.918 88.2487 212.918 87.698C212.918 87.1287 213.105 86.6387 213.478 86.228C213.852 85.8173 214.37 85.5 215.032 85.276C215.704 85.0427 216.474 84.926 217.342 84.926ZM217.342 85.864C216.708 85.864 216.143 85.9387 215.648 86.088C215.163 86.2373 214.785 86.452 214.514 86.732C214.244 87.0027 214.108 87.3247 214.108 87.698C214.108 88.062 214.244 88.384 214.514 88.664C214.785 88.9347 215.163 89.1447 215.648 89.294C216.143 89.434 216.708 89.504 217.342 89.504C217.996 89.504 218.565 89.434 219.05 89.294C219.536 89.1447 219.914 88.9347 220.184 88.664C220.455 88.384 220.59 88.062 220.59 87.698C220.59 87.3247 220.455 87.0027 220.184 86.732C219.914 86.452 219.536 86.2373 219.05 86.088C218.565 85.9387 217.996 85.864 217.342 85.864ZM233.105 84.422H234.253V97.092H233.105V84.422ZM233.987 89.63H236.325V90.61H233.987V89.63ZM224.453 86.452H231.915V87.404H224.453V86.452ZM228.247 88.44C228.845 88.44 229.372 88.566 229.829 88.818C230.296 89.07 230.66 89.4153 230.921 89.854C231.192 90.2833 231.327 90.7827 231.327 91.352C231.327 91.9213 231.192 92.4253 230.921 92.864C230.66 93.3027 230.296 93.648 229.829 93.9C229.372 94.1427 228.845 94.264 228.247 94.264C227.65 94.264 227.118 94.1427 226.651 93.9C226.194 93.648 225.83 93.3027 225.559 92.864C225.289 92.4253 225.153 91.9213 225.153 91.352C225.153 90.7827 225.289 90.2833 225.559 89.854C225.83 89.4153 226.194 89.07 226.651 88.818C227.118 88.566 227.65 88.44 228.247 88.44ZM228.247 89.406C227.865 89.406 227.524 89.49 227.225 89.658C226.927 89.826 226.689 90.0547 226.511 90.344C226.343 90.6333 226.259 90.9693 226.259 91.352C226.259 91.7347 226.343 92.0753 226.511 92.374C226.689 92.6633 226.927 92.892 227.225 93.06C227.524 93.2187 227.865 93.298 228.247 93.298C228.621 93.298 228.957 93.2187 229.255 93.06C229.554 92.892 229.787 92.6633 229.955 92.374C230.133 92.0753 230.221 91.7347 230.221 91.352C230.221 90.9693 230.133 90.6333 229.955 90.344C229.787 90.0547 229.554 89.826 229.255 89.658C228.957 89.49 228.621 89.406 228.247 89.406ZM227.645 84.576H228.807V86.872H227.645V84.576ZM246.628 84.422H247.79V97.092H246.628V84.422ZM242.918 85.794H244.066C244.066 86.7087 243.954 87.5907 243.73 88.44C243.515 89.2893 243.175 90.0967 242.708 90.862C242.241 91.618 241.635 92.3227 240.888 92.976C240.141 93.6293 239.236 94.2127 238.172 94.726L237.556 93.788C238.779 93.2 239.787 92.514 240.58 91.73C241.373 90.946 241.961 90.0733 242.344 89.112C242.727 88.1413 242.918 87.096 242.918 85.976V85.794ZM238.144 85.794H243.408V86.732H238.144V85.794Z" fill="black"/>
</svg>
