<svg width="393" height="332" viewBox="0 0 393 332" fill="none" xmlns="http://www.w3.org/2000/svg">
<rect width="393" height="332" fill="white"/>
<path d="M149.93 255.7H150.89L150.22 258.07C150.147 258.337 150.083 258.59 150.03 258.83C149.983 259.063 149.96 259.23 149.96 259.33C149.96 259.457 150 259.557 150.08 259.63C150.16 259.697 150.267 259.73 150.4 259.73C150.62 259.73 150.837 259.647 151.05 259.48C151.27 259.307 151.463 259.083 151.63 258.81C151.803 258.53 151.943 258.217 152.05 257.87C152.157 257.517 152.21 257.16 152.21 256.8C152.21 256.347 152.12 255.93 151.94 255.55C151.767 255.163 151.523 254.83 151.21 254.55C150.903 254.27 150.537 254.05 150.11 253.89C149.683 253.73 149.217 253.65 148.71 253.65C148.11 253.65 147.547 253.763 147.02 253.99C146.5 254.21 146.047 254.517 145.66 254.91C145.28 255.297 144.98 255.757 144.76 256.29C144.54 256.823 144.43 257.397 144.43 258.01C144.43 258.583 144.527 259.107 144.72 259.58C144.92 260.053 145.197 260.46 145.55 260.8C145.91 261.133 146.34 261.393 146.84 261.58C147.34 261.767 147.893 261.86 148.5 261.86C149.627 261.86 150.673 261.527 151.64 260.86L151.85 261.17C151.263 261.577 150.693 261.873 150.14 262.06C149.587 262.247 148.997 262.34 148.37 262.34C147.657 262.34 147.003 262.233 146.41 262.02C145.817 261.807 145.307 261.507 144.88 261.12C144.453 260.74 144.12 260.283 143.88 259.75C143.64 259.217 143.52 258.633 143.52 258C143.52 257.327 143.65 256.697 143.91 256.11C144.177 255.523 144.54 255.017 145 254.59C145.467 254.157 146.01 253.817 146.63 253.57C147.257 253.323 147.93 253.2 148.65 253.2C149.25 253.2 149.793 253.287 150.28 253.46C150.773 253.633 151.197 253.877 151.55 254.19C151.903 254.503 152.177 254.88 152.37 255.32C152.563 255.76 152.66 256.247 152.66 256.78C152.66 257.24 152.59 257.68 152.45 258.1C152.317 258.513 152.133 258.88 151.9 259.2C151.667 259.513 151.397 259.763 151.09 259.95C150.783 260.137 150.46 260.23 150.12 260.23C149.48 260.23 149.13 259.847 149.07 259.08H149.03C148.823 259.427 148.567 259.707 148.26 259.92C147.953 260.127 147.647 260.23 147.34 260.23C147.127 260.23 146.927 260.187 146.74 260.1C146.56 260.013 146.403 259.897 146.27 259.75C146.137 259.597 146.03 259.417 145.95 259.21C145.877 258.997 145.84 258.767 145.84 258.52C145.84 258.153 145.917 257.797 146.07 257.45C146.223 257.097 146.423 256.783 146.67 256.51C146.923 256.237 147.207 256.017 147.52 255.85C147.84 255.683 148.167 255.6 148.5 255.6C148.813 255.6 149.063 255.68 149.25 255.84C149.437 255.993 149.577 256.24 149.67 256.58L149.71 256.59L149.93 255.7ZM148.58 256.02C148.36 256.02 148.143 256.1 147.93 256.26C147.723 256.413 147.537 256.617 147.37 256.87C147.203 257.123 147.07 257.413 146.97 257.74C146.87 258.06 146.82 258.39 146.82 258.73C146.82 259.43 147.043 259.78 147.49 259.78C147.703 259.78 147.92 259.7 148.14 259.54C148.36 259.373 148.557 259.16 148.73 258.9C148.91 258.64 149.057 258.35 149.17 258.03C149.283 257.703 149.34 257.38 149.34 257.06C149.34 256.733 149.273 256.48 149.14 256.3C149.007 256.113 148.82 256.02 148.58 256.02ZM155.423 261.02C155.423 261.853 155.246 262.49 154.893 262.93C154.546 263.377 154.04 263.6 153.373 263.6C152.946 263.6 152.6 263.513 152.333 263.34C152.06 263.173 151.923 262.95 151.923 262.67C151.923 262.517 151.97 262.4 152.063 262.32C152.15 262.24 152.273 262.2 152.433 262.2C152.553 262.2 152.646 262.227 152.713 262.28C152.773 262.34 152.853 262.47 152.953 262.67C153.046 262.87 153.133 263.003 153.213 263.07C153.293 263.137 153.416 263.17 153.583 263.17C153.903 263.17 154.126 263.06 154.253 262.84C154.38 262.62 154.443 262.233 154.443 261.68V258.2C154.443 257.813 154.436 257.497 154.423 257.25C154.416 256.997 154.4 256.823 154.373 256.73C154.34 256.577 154.263 256.473 154.143 256.42C154.023 256.36 153.796 256.33 153.463 256.33V255.98L155.423 255.6V261.02ZM154.293 253.57C154.293 253.397 154.353 253.25 154.473 253.13C154.593 253.01 154.74 252.95 154.913 252.95C155.086 252.95 155.233 253.01 155.353 253.13C155.473 253.25 155.533 253.397 155.533 253.57C155.533 253.743 155.473 253.89 155.353 254.01C155.233 254.13 155.086 254.19 154.913 254.19C154.74 254.19 154.593 254.13 154.473 254.01C154.353 253.89 154.293 253.743 154.293 253.57ZM160.96 257.3C160.96 257.027 160.953 256.813 160.94 256.66C160.927 256.5 160.89 256.38 160.83 256.3C160.777 256.213 160.693 256.157 160.58 256.13C160.473 256.097 160.323 256.07 160.13 256.05V255.7H161.94V258.77C161.94 259.15 161.943 259.46 161.95 259.7C161.963 259.94 161.98 260.12 162 260.24C162.013 260.327 162.033 260.397 162.06 260.45C162.093 260.497 162.14 260.537 162.2 260.57C162.26 260.597 162.337 260.617 162.43 260.63C162.53 260.637 162.657 260.64 162.81 260.64V260.99L161.16 261.11L161.05 259.91H161.01C160.757 260.323 160.463 260.627 160.13 260.82C159.803 261.007 159.46 261.1 159.1 261.1C158.82 261.1 158.547 261.047 158.28 260.94C158.02 260.833 157.823 260.69 157.69 260.51C157.577 260.363 157.493 260.16 157.44 259.9C157.393 259.64 157.37 259.303 157.37 258.89V257.3C157.37 257.027 157.363 256.813 157.35 256.66C157.337 256.5 157.3 256.38 157.24 256.3C157.187 256.213 157.103 256.157 156.99 256.13C156.883 256.097 156.733 256.07 156.54 256.05V255.7H158.35V258.43C158.35 259.157 158.433 259.683 158.6 260.01C158.773 260.337 159.047 260.5 159.42 260.5C160.007 260.5 160.463 260.117 160.79 259.35C160.823 259.27 160.85 259.197 160.87 259.13C160.89 259.063 160.907 258.99 160.92 258.91C160.933 258.83 160.943 258.74 160.95 258.64C160.957 258.54 160.96 258.42 160.96 258.28V257.3ZM165.189 259.43C165.189 259.703 165.196 259.92 165.209 260.08C165.223 260.233 165.256 260.353 165.309 260.44C165.369 260.52 165.453 260.573 165.559 260.6C165.673 260.627 165.826 260.647 166.019 260.66V261H163.399V260.66C163.586 260.647 163.733 260.627 163.839 260.6C163.953 260.573 164.039 260.52 164.099 260.44C164.159 260.36 164.196 260.247 164.209 260.1C164.229 259.953 164.239 259.753 164.239 259.5V258.17C164.239 257.377 164.219 256.893 164.179 256.72C164.159 256.633 164.133 256.563 164.099 256.51C164.073 256.45 164.029 256.407 163.969 256.38C163.909 256.347 163.833 256.327 163.739 256.32C163.646 256.307 163.526 256.3 163.379 256.3V255.98L164.979 255.6L165.099 256.59H165.139C165.393 256.277 165.689 256.033 166.029 255.86C166.369 255.687 166.739 255.6 167.139 255.6C167.446 255.6 167.726 255.65 167.979 255.75C168.233 255.85 168.426 255.987 168.559 256.16C168.673 256.313 168.753 256.513 168.799 256.76C168.846 257 168.869 257.333 168.869 257.76V259.43C168.869 259.703 168.876 259.92 168.889 260.08C168.909 260.233 168.946 260.353 168.999 260.44C169.053 260.52 169.133 260.573 169.239 260.6C169.353 260.627 169.499 260.647 169.679 260.66V261H167.089V260.66C167.276 260.653 167.423 260.637 167.529 260.61C167.643 260.577 167.726 260.52 167.779 260.44C167.839 260.36 167.876 260.247 167.889 260.1C167.909 259.947 167.919 259.747 167.919 259.5V258.18C167.919 257.8 167.899 257.48 167.859 257.22C167.819 256.96 167.753 256.75 167.659 256.59C167.573 256.43 167.456 256.317 167.309 256.25C167.163 256.177 166.986 256.14 166.779 256.14C166.479 256.14 166.203 256.22 165.949 256.38C165.703 256.533 165.509 256.747 165.369 257.02C165.336 257.087 165.306 257.15 165.279 257.21C165.259 257.27 165.243 257.34 165.229 257.42C165.216 257.5 165.206 257.593 165.199 257.7C165.193 257.8 165.189 257.93 165.189 258.09V259.43ZM170.784 261H170.564V259.28H170.814C171.074 260.22 171.547 260.69 172.234 260.69C172.5 260.69 172.71 260.627 172.864 260.5C173.024 260.367 173.104 260.167 173.104 259.9C173.104 259.8 173.087 259.717 173.054 259.65C173.027 259.577 172.97 259.503 172.884 259.43C172.804 259.35 172.687 259.26 172.534 259.16C172.387 259.06 172.19 258.933 171.944 258.78C171.717 258.64 171.52 258.51 171.354 258.39C171.187 258.27 171.047 258.15 170.934 258.03C170.82 257.903 170.734 257.77 170.674 257.63C170.62 257.49 170.594 257.327 170.594 257.14C170.594 256.913 170.63 256.707 170.704 256.52C170.784 256.327 170.89 256.163 171.024 256.03C171.157 255.897 171.314 255.793 171.494 255.72C171.674 255.64 171.87 255.6 172.084 255.6C172.264 255.6 172.45 255.63 172.644 255.69C172.837 255.743 173.007 255.817 173.154 255.91L173.354 255.7H173.544V257.14H173.284C173.137 256.733 172.977 256.443 172.804 256.27C172.63 256.097 172.417 256.01 172.164 256.01C171.937 256.01 171.754 256.07 171.614 256.19C171.48 256.31 171.414 256.477 171.414 256.69C171.414 256.803 171.43 256.903 171.464 256.99C171.504 257.07 171.564 257.15 171.644 257.23C171.724 257.31 171.824 257.393 171.944 257.48C172.07 257.56 172.22 257.653 172.394 257.76C172.68 257.94 172.924 258.1 173.124 258.24C173.33 258.38 173.497 258.52 173.624 258.66C173.75 258.793 173.844 258.933 173.904 259.08C173.964 259.227 173.994 259.393 173.994 259.58C173.994 260.053 173.84 260.427 173.534 260.7C173.227 260.967 172.824 261.1 172.324 261.1C171.804 261.1 171.357 260.95 170.984 260.65L170.784 261ZM179.095 257.3C179.095 257.027 179.088 256.813 179.075 256.66C179.062 256.5 179.025 256.38 178.965 256.3C178.912 256.213 178.828 256.157 178.715 256.13C178.608 256.097 178.458 256.07 178.265 256.05V255.7H180.075V258.77C180.075 259.15 180.078 259.46 180.085 259.7C180.098 259.94 180.115 260.12 180.135 260.24C180.148 260.327 180.168 260.397 180.195 260.45C180.228 260.497 180.275 260.537 180.335 260.57C180.395 260.597 180.472 260.617 180.565 260.63C180.665 260.637 180.792 260.64 180.945 260.64V260.99L179.295 261.11L179.185 259.91H179.145C178.892 260.323 178.598 260.627 178.265 260.82C177.938 261.007 177.595 261.1 177.235 261.1C176.955 261.1 176.682 261.047 176.415 260.94C176.155 260.833 175.958 260.69 175.825 260.51C175.712 260.363 175.628 260.16 175.575 259.9C175.528 259.64 175.505 259.303 175.505 258.89V257.3C175.505 257.027 175.498 256.813 175.485 256.66C175.472 256.5 175.435 256.38 175.375 256.3C175.322 256.213 175.238 256.157 175.125 256.13C175.018 256.097 174.868 256.07 174.675 256.05V255.7H176.485V258.43C176.485 259.157 176.568 259.683 176.735 260.01C176.908 260.337 177.182 260.5 177.555 260.5C178.142 260.5 178.598 260.117 178.925 259.35C178.958 259.27 178.985 259.197 179.005 259.13C179.025 259.063 179.042 258.99 179.055 258.91C179.068 258.83 179.078 258.74 179.085 258.64C179.092 258.54 179.095 258.42 179.095 258.28V257.3ZM183.324 259.43C183.324 259.703 183.331 259.92 183.344 260.08C183.357 260.233 183.391 260.353 183.444 260.44C183.504 260.52 183.587 260.573 183.694 260.6C183.807 260.627 183.961 260.647 184.154 260.66V261H181.534V260.66C181.721 260.647 181.867 260.627 181.974 260.6C182.087 260.573 182.174 260.52 182.234 260.44C182.294 260.36 182.331 260.247 182.344 260.1C182.364 259.953 182.374 259.753 182.374 259.5V258.17C182.374 257.377 182.354 256.893 182.314 256.72C182.294 256.633 182.267 256.563 182.234 256.51C182.207 256.45 182.164 256.407 182.104 256.38C182.044 256.347 181.967 256.327 181.874 256.32C181.781 256.307 181.661 256.3 181.514 256.3V255.98L183.114 255.6L183.234 256.59H183.274C183.527 256.277 183.824 256.033 184.164 255.86C184.504 255.687 184.874 255.6 185.274 255.6C185.581 255.6 185.861 255.65 186.114 255.75C186.367 255.85 186.561 255.987 186.694 256.16C186.807 256.313 186.887 256.513 186.934 256.76C186.981 257 187.004 257.333 187.004 257.76V259.43C187.004 259.703 187.011 259.92 187.024 260.08C187.044 260.233 187.081 260.353 187.134 260.44C187.187 260.52 187.267 260.573 187.374 260.6C187.487 260.627 187.634 260.647 187.814 260.66V261H185.224V260.66C185.411 260.653 185.557 260.637 185.664 260.61C185.777 260.577 185.861 260.52 185.914 260.44C185.974 260.36 186.011 260.247 186.024 260.1C186.044 259.947 186.054 259.747 186.054 259.5V258.18C186.054 257.8 186.034 257.48 185.994 257.22C185.954 256.96 185.887 256.75 185.794 256.59C185.707 256.43 185.591 256.317 185.444 256.25C185.297 256.177 185.121 256.14 184.914 256.14C184.614 256.14 184.337 256.22 184.084 256.38C183.837 256.533 183.644 256.747 183.504 257.02C183.471 257.087 183.441 257.15 183.414 257.21C183.394 257.27 183.377 257.34 183.364 257.42C183.351 257.5 183.341 257.593 183.334 257.7C183.327 257.8 183.324 257.93 183.324 258.09V259.43ZM190.799 258.85C191.079 258.85 191.295 258.723 191.449 258.47C191.609 258.217 191.689 257.86 191.689 257.4C191.689 256.947 191.609 256.597 191.449 256.35C191.295 256.097 191.075 255.97 190.789 255.97C190.502 255.97 190.272 256.097 190.099 256.35C189.932 256.603 189.849 256.95 189.849 257.39C189.849 257.83 189.935 258.183 190.109 258.45C190.282 258.717 190.512 258.85 190.799 258.85ZM190.249 260.02C190.409 260.033 190.555 260.047 190.689 260.06C190.822 260.073 190.952 260.087 191.079 260.1C191.212 260.113 191.342 260.13 191.469 260.15C191.602 260.17 191.745 260.19 191.899 260.21C192.379 260.283 192.762 260.47 193.049 260.77C193.342 261.063 193.489 261.433 193.489 261.88C193.489 262.44 193.265 262.867 192.819 263.16C192.379 263.453 191.739 263.6 190.899 263.6C190.525 263.6 190.182 263.567 189.869 263.5C189.562 263.433 189.299 263.337 189.079 263.21C188.859 263.09 188.685 262.943 188.559 262.77C188.439 262.597 188.379 262.407 188.379 262.2C188.379 262.06 188.402 261.93 188.449 261.81C188.495 261.69 188.559 261.583 188.639 261.49C188.719 261.403 188.812 261.333 188.919 261.28C189.032 261.227 189.149 261.2 189.269 261.2C189.495 261.2 189.699 261.27 189.879 261.41C189.699 261.45 189.552 261.547 189.439 261.7C189.325 261.86 189.269 262.04 189.269 262.24C189.269 262.533 189.412 262.76 189.699 262.92C189.992 263.08 190.405 263.16 190.939 263.16C192.079 263.16 192.649 262.81 192.649 262.11C192.649 261.843 192.559 261.62 192.379 261.44C192.199 261.267 191.985 261.163 191.739 261.13C191.579 261.11 191.412 261.087 191.239 261.06C191.072 261.04 190.905 261.02 190.739 261C190.579 260.98 190.429 260.963 190.289 260.95C190.149 260.937 190.035 260.923 189.949 260.91C189.575 260.87 189.292 260.77 189.099 260.61C188.905 260.45 188.809 260.23 188.809 259.95C188.809 259.717 188.905 259.51 189.099 259.33C189.292 259.15 189.535 259.037 189.829 258.99V258.95C189.682 258.89 189.545 258.807 189.419 258.7C189.292 258.587 189.182 258.46 189.089 258.32C189.002 258.18 188.932 258.03 188.879 257.87C188.825 257.703 188.799 257.533 188.799 257.36C188.799 257.107 188.845 256.873 188.939 256.66C189.039 256.447 189.175 256.263 189.349 256.11C189.529 255.95 189.739 255.827 189.979 255.74C190.219 255.647 190.482 255.6 190.769 255.6C191.062 255.6 191.339 255.647 191.599 255.74C191.859 255.827 192.082 255.957 192.269 256.13C192.495 255.943 192.695 255.81 192.869 255.73C193.042 255.643 193.205 255.6 193.359 255.6C193.599 255.6 193.789 255.657 193.929 255.77C194.075 255.877 194.149 256.023 194.149 256.21C194.149 256.323 194.109 256.413 194.029 256.48C193.955 256.547 193.862 256.58 193.749 256.58C193.655 256.58 193.579 256.563 193.519 256.53C193.459 256.497 193.402 256.463 193.349 256.43C193.302 256.39 193.252 256.353 193.199 256.32C193.145 256.287 193.079 256.27 192.999 256.27C192.839 256.27 192.675 256.327 192.509 256.44C192.669 256.687 192.749 256.997 192.749 257.37C192.749 257.937 192.572 258.383 192.219 258.71C191.865 259.03 191.335 259.217 190.629 259.27C190.222 259.303 189.939 259.347 189.779 259.4C189.619 259.453 189.539 259.55 189.539 259.69C189.539 259.797 189.599 259.877 189.719 259.93C189.839 259.977 190.015 260.007 190.249 260.02ZM197.515 256.42C197.835 256.173 198.068 255.923 198.215 255.67C198.362 255.41 198.435 255.13 198.435 254.83C198.435 254.517 198.365 254.27 198.225 254.09C198.085 253.903 197.898 253.81 197.665 253.81C197.225 253.81 197.005 254.147 197.005 254.82C197.005 255.113 197.048 255.397 197.135 255.67C197.222 255.937 197.348 256.187 197.515 256.42ZM196.945 257.36C196.525 257.6 196.198 257.883 195.965 258.21C195.732 258.53 195.615 258.863 195.615 259.21C195.615 259.577 195.732 259.88 195.965 260.12C196.205 260.353 196.512 260.47 196.885 260.47C197.165 260.47 197.465 260.4 197.785 260.26C198.105 260.12 198.408 259.923 198.695 259.67L196.945 257.36ZM199.415 258.91C199.575 258.71 199.722 258.517 199.855 258.33C199.995 258.137 200.115 257.957 200.215 257.79C200.315 257.617 200.392 257.46 200.445 257.32C200.498 257.18 200.525 257.067 200.525 256.98C200.525 256.873 200.475 256.797 200.375 256.75C200.282 256.703 200.128 256.68 199.915 256.68V256.33H202.215V256.68C202.068 256.68 201.942 256.69 201.835 256.71C201.735 256.723 201.645 256.75 201.565 256.79C201.485 256.83 201.408 256.883 201.335 256.95C201.268 257.017 201.202 257.103 201.135 257.21L199.715 259.29C199.995 259.67 200.285 259.96 200.585 260.16C200.892 260.353 201.195 260.45 201.495 260.45C201.582 260.45 201.658 260.443 201.725 260.43C201.792 260.41 201.852 260.38 201.905 260.34C201.965 260.293 202.018 260.233 202.065 260.16C202.118 260.087 202.172 259.993 202.225 259.88L202.475 259.95C202.402 260.323 202.238 260.61 201.985 260.81C201.732 261.003 201.402 261.1 200.995 261.1C200.828 261.1 200.668 261.08 200.515 261.04C200.368 261.007 200.218 260.947 200.065 260.86C199.912 260.773 199.748 260.66 199.575 260.52C199.402 260.38 199.212 260.207 199.005 260C198.672 260.347 198.285 260.617 197.845 260.81C197.412 261.003 196.968 261.1 196.515 261.1C196.208 261.1 195.925 261.057 195.665 260.97C195.412 260.877 195.192 260.753 195.005 260.6C194.818 260.44 194.672 260.253 194.565 260.04C194.458 259.82 194.405 259.583 194.405 259.33C194.405 258.877 194.585 258.46 194.945 258.08C195.305 257.693 195.882 257.307 196.675 256.92C196.462 256.607 196.305 256.313 196.205 256.04C196.112 255.767 196.065 255.48 196.065 255.18C196.065 254.887 196.105 254.62 196.185 254.38C196.272 254.133 196.392 253.923 196.545 253.75C196.698 253.577 196.882 253.443 197.095 253.35C197.308 253.25 197.545 253.2 197.805 253.2C198.032 253.2 198.238 253.237 198.425 253.31C198.618 253.383 198.785 253.487 198.925 253.62C199.065 253.753 199.172 253.91 199.245 254.09C199.325 254.27 199.365 254.47 199.365 254.69C199.365 255.063 199.242 255.413 198.995 255.74C198.755 256.067 198.355 256.42 197.795 256.8L199.415 258.91ZM207.664 260.16H207.624C207.384 260.5 207.128 260.743 206.854 260.89C206.588 261.03 206.271 261.1 205.904 261.1C205.524 261.1 205.174 261.033 204.854 260.9C204.541 260.76 204.268 260.57 204.034 260.33C203.808 260.083 203.628 259.79 203.494 259.45C203.368 259.11 203.304 258.74 203.304 258.34C203.304 257.947 203.368 257.583 203.494 257.25C203.628 256.91 203.808 256.62 204.034 256.38C204.268 256.133 204.544 255.943 204.864 255.81C205.184 255.67 205.531 255.6 205.904 255.6C206.224 255.6 206.508 255.653 206.754 255.76C207.008 255.867 207.251 256.037 207.484 256.27V255.25C207.484 254.87 207.478 254.553 207.464 254.3C207.458 254.047 207.444 253.873 207.424 253.78C207.391 253.633 207.298 253.53 207.144 253.47C206.991 253.41 206.741 253.38 206.394 253.38V253.08L208.444 252.7V258.47C208.444 258.93 208.448 259.31 208.454 259.61C208.461 259.903 208.481 260.113 208.514 260.24C208.534 260.32 208.558 260.387 208.584 260.44C208.618 260.493 208.661 260.537 208.714 260.57C208.774 260.597 208.851 260.617 208.944 260.63C209.044 260.643 209.171 260.65 209.324 260.65V260.99L207.664 261.1V260.16ZM207.464 257.95C207.464 257.603 207.444 257.34 207.404 257.16C207.371 256.98 207.301 256.823 207.194 256.69C207.041 256.49 206.844 256.34 206.604 256.24C206.371 256.133 206.138 256.08 205.904 256.08C205.424 256.08 205.058 256.28 204.804 256.68C204.558 257.073 204.434 257.61 204.434 258.29C204.434 258.643 204.464 258.963 204.524 259.25C204.591 259.537 204.684 259.783 204.804 259.99C204.931 260.19 205.084 260.347 205.264 260.46C205.451 260.567 205.664 260.62 205.904 260.62C206.024 260.62 206.144 260.607 206.264 260.58C206.391 260.553 206.511 260.513 206.624 260.46C206.744 260.4 206.854 260.333 206.954 260.26C207.054 260.18 207.138 260.09 207.204 259.99C207.298 259.843 207.364 259.667 207.404 259.46C207.444 259.253 207.464 258.97 207.464 258.61V257.95ZM212.822 255.6C213.202 255.6 213.562 255.67 213.902 255.81C214.242 255.943 214.539 256.13 214.792 256.37C215.052 256.61 215.256 256.897 215.402 257.23C215.556 257.557 215.632 257.917 215.632 258.31C215.632 258.717 215.556 259.09 215.402 259.43C215.256 259.77 215.052 260.063 214.792 260.31C214.539 260.557 214.242 260.75 213.902 260.89C213.562 261.03 213.202 261.1 212.822 261.1C212.449 261.1 212.092 261.033 211.752 260.9C211.419 260.76 211.126 260.567 210.872 260.32C210.619 260.073 210.419 259.78 210.272 259.44C210.126 259.093 210.052 258.717 210.052 258.31C210.052 257.917 210.126 257.553 210.272 257.22C210.419 256.887 210.619 256.6 210.872 256.36C211.126 256.12 211.419 255.933 211.752 255.8C212.092 255.667 212.449 255.6 212.822 255.6ZM212.822 256.08C212.576 256.08 212.349 256.133 212.142 256.24C211.942 256.347 211.769 256.5 211.622 256.7C211.482 256.893 211.372 257.13 211.292 257.41C211.219 257.683 211.182 257.987 211.182 258.32C211.182 258.667 211.219 258.98 211.292 259.26C211.372 259.54 211.482 259.78 211.622 259.98C211.769 260.173 211.942 260.323 212.142 260.43C212.342 260.537 212.569 260.59 212.822 260.59C213.076 260.59 213.306 260.537 213.512 260.43C213.719 260.323 213.896 260.17 214.042 259.97C214.189 259.77 214.302 259.53 214.382 259.25C214.462 258.97 214.502 258.66 214.502 258.32C214.502 257.987 214.462 257.683 214.382 257.41C214.302 257.137 214.189 256.903 214.042 256.71C213.896 256.51 213.719 256.357 213.512 256.25C213.306 256.137 213.076 256.08 212.822 256.08ZM218.73 262.57C218.423 263.257 217.947 263.6 217.3 263.6C216.88 263.6 216.67 263.443 216.67 263.13C216.67 262.963 216.727 262.84 216.84 262.76C216.96 262.687 217.177 262.623 217.49 262.57C217.63 262.55 217.75 262.52 217.85 262.48C217.95 262.447 218.04 262.4 218.12 262.34C218.2 262.287 218.27 262.217 218.33 262.13C218.397 262.043 218.46 261.937 218.52 261.81L218.87 261.11L216.95 256.94C216.863 256.753 216.787 256.607 216.72 256.5C216.66 256.387 216.593 256.3 216.52 256.24C216.453 256.173 216.377 256.13 216.29 256.11C216.203 256.083 216.093 256.063 215.96 256.05V255.7H218.61V256.05C218.163 256.05 217.94 256.16 217.94 256.38C217.94 256.467 217.967 256.603 218.02 256.79C218.073 256.977 218.14 257.167 218.22 257.36L219.32 260.02H219.37L220.28 257.77C220.367 257.55 220.437 257.37 220.49 257.23C220.55 257.09 220.593 256.977 220.62 256.89C220.653 256.797 220.673 256.72 220.68 256.66C220.693 256.6 220.7 256.543 220.7 256.49C220.7 256.317 220.65 256.2 220.55 256.14C220.457 256.08 220.273 256.05 220 256.05V255.7H222.2V256.05C222.073 256.05 221.967 256.067 221.88 256.1C221.793 256.133 221.703 256.21 221.61 256.33C221.523 256.443 221.423 256.61 221.31 256.83C221.203 257.05 221.07 257.347 220.91 257.72L218.73 262.57ZM225.342 255.6C225.722 255.6 226.082 255.67 226.422 255.81C226.762 255.943 227.058 256.13 227.312 256.37C227.572 256.61 227.775 256.897 227.922 257.23C228.075 257.557 228.152 257.917 228.152 258.31C228.152 258.717 228.075 259.09 227.922 259.43C227.775 259.77 227.572 260.063 227.312 260.31C227.058 260.557 226.762 260.75 226.422 260.89C226.082 261.03 225.722 261.1 225.342 261.1C224.968 261.1 224.612 261.033 224.272 260.9C223.938 260.76 223.645 260.567 223.392 260.32C223.138 260.073 222.938 259.78 222.792 259.44C222.645 259.093 222.572 258.717 222.572 258.31C222.572 257.917 222.645 257.553 222.792 257.22C222.938 256.887 223.138 256.6 223.392 256.36C223.645 256.12 223.938 255.933 224.272 255.8C224.612 255.667 224.968 255.6 225.342 255.6ZM225.342 256.08C225.095 256.08 224.868 256.133 224.662 256.24C224.462 256.347 224.288 256.5 224.142 256.7C224.002 256.893 223.892 257.13 223.812 257.41C223.738 257.683 223.702 257.987 223.702 258.32C223.702 258.667 223.738 258.98 223.812 259.26C223.892 259.54 224.002 259.78 224.142 259.98C224.288 260.173 224.462 260.323 224.662 260.43C224.862 260.537 225.088 260.59 225.342 260.59C225.595 260.59 225.825 260.537 226.032 260.43C226.238 260.323 226.415 260.17 226.562 259.97C226.708 259.77 226.822 259.53 226.902 259.25C226.982 258.97 227.022 258.66 227.022 258.32C227.022 257.987 226.982 257.683 226.902 257.41C226.822 257.137 226.708 256.903 226.562 256.71C226.415 256.51 226.238 256.357 226.032 256.25C225.825 256.137 225.595 256.08 225.342 256.08ZM233.265 257.3C233.265 257.027 233.258 256.813 233.245 256.66C233.231 256.5 233.195 256.38 233.135 256.3C233.081 256.213 232.998 256.157 232.885 256.13C232.778 256.097 232.628 256.07 232.435 256.05V255.7H234.245V258.77C234.245 259.15 234.248 259.46 234.255 259.7C234.268 259.94 234.285 260.12 234.305 260.24C234.318 260.327 234.338 260.397 234.365 260.45C234.398 260.497 234.445 260.537 234.505 260.57C234.565 260.597 234.641 260.617 234.735 260.63C234.835 260.637 234.961 260.64 235.115 260.64V260.99L233.465 261.11L233.355 259.91H233.315C233.061 260.323 232.768 260.627 232.435 260.82C232.108 261.007 231.765 261.1 231.405 261.1C231.125 261.1 230.851 261.047 230.585 260.94C230.325 260.833 230.128 260.69 229.995 260.51C229.881 260.363 229.798 260.16 229.745 259.9C229.698 259.64 229.675 259.303 229.675 258.89V257.3C229.675 257.027 229.668 256.813 229.655 256.66C229.641 256.5 229.605 256.38 229.545 256.3C229.491 256.213 229.408 256.157 229.295 256.13C229.188 256.097 229.038 256.07 228.845 256.05V255.7H230.655V258.43C230.655 259.157 230.738 259.683 230.905 260.01C231.078 260.337 231.351 260.5 231.725 260.5C232.311 260.5 232.768 260.117 233.095 259.35C233.128 259.27 233.155 259.197 233.175 259.13C233.195 259.063 233.211 258.99 233.225 258.91C233.238 258.83 233.248 258.74 233.255 258.64C233.261 258.54 233.265 258.42 233.265 258.28V257.3ZM237.494 259.43C237.494 259.703 237.501 259.92 237.514 260.08C237.527 260.233 237.561 260.353 237.614 260.44C237.674 260.52 237.757 260.573 237.864 260.6C237.977 260.627 238.131 260.647 238.324 260.66V261H235.704V260.66C235.891 260.647 236.037 260.627 236.144 260.6C236.257 260.573 236.344 260.52 236.404 260.44C236.464 260.36 236.501 260.247 236.514 260.1C236.534 259.953 236.544 259.753 236.544 259.5V258.17C236.544 257.377 236.524 256.893 236.484 256.72C236.464 256.633 236.437 256.563 236.404 256.51C236.377 256.45 236.334 256.407 236.274 256.38C236.214 256.347 236.137 256.327 236.044 256.32C235.951 256.307 235.831 256.3 235.684 256.3V255.98L237.284 255.6L237.404 256.59H237.444C237.697 256.277 237.994 256.033 238.334 255.86C238.674 255.687 239.044 255.6 239.444 255.6C239.751 255.6 240.031 255.65 240.284 255.75C240.537 255.85 240.731 255.987 240.864 256.16C240.977 256.313 241.057 256.513 241.104 256.76C241.151 257 241.174 257.333 241.174 257.76V259.43C241.174 259.703 241.181 259.92 241.194 260.08C241.214 260.233 241.251 260.353 241.304 260.44C241.357 260.52 241.437 260.573 241.544 260.6C241.657 260.627 241.804 260.647 241.984 260.66V261H239.394V260.66C239.581 260.653 239.727 260.637 239.834 260.61C239.947 260.577 240.031 260.52 240.084 260.44C240.144 260.36 240.181 260.247 240.194 260.1C240.214 259.947 240.224 259.747 240.224 259.5V258.18C240.224 257.8 240.204 257.48 240.164 257.22C240.124 256.96 240.057 256.75 239.964 256.59C239.877 256.43 239.761 256.317 239.614 256.25C239.467 256.177 239.291 256.14 239.084 256.14C238.784 256.14 238.507 256.22 238.254 256.38C238.007 256.533 237.814 256.747 237.674 257.02C237.641 257.087 237.611 257.15 237.584 257.21C237.564 257.27 237.547 257.34 237.534 257.42C237.521 257.5 237.511 257.593 237.504 257.7C237.497 257.8 237.494 257.93 237.494 258.09V259.43ZM244.969 258.85C245.249 258.85 245.465 258.723 245.619 258.47C245.779 258.217 245.859 257.86 245.859 257.4C245.859 256.947 245.779 256.597 245.619 256.35C245.465 256.097 245.245 255.97 244.959 255.97C244.672 255.97 244.442 256.097 244.269 256.35C244.102 256.603 244.019 256.95 244.019 257.39C244.019 257.83 244.105 258.183 244.279 258.45C244.452 258.717 244.682 258.85 244.969 258.85ZM244.419 260.02C244.579 260.033 244.725 260.047 244.859 260.06C244.992 260.073 245.122 260.087 245.249 260.1C245.382 260.113 245.512 260.13 245.639 260.15C245.772 260.17 245.915 260.19 246.069 260.21C246.549 260.283 246.932 260.47 247.219 260.77C247.512 261.063 247.659 261.433 247.659 261.88C247.659 262.44 247.435 262.867 246.989 263.16C246.549 263.453 245.909 263.6 245.069 263.6C244.695 263.6 244.352 263.567 244.039 263.5C243.732 263.433 243.469 263.337 243.249 263.21C243.029 263.09 242.855 262.943 242.729 262.77C242.609 262.597 242.549 262.407 242.549 262.2C242.549 262.06 242.572 261.93 242.619 261.81C242.665 261.69 242.729 261.583 242.809 261.49C242.889 261.403 242.982 261.333 243.089 261.28C243.202 261.227 243.319 261.2 243.439 261.2C243.665 261.2 243.869 261.27 244.049 261.41C243.869 261.45 243.722 261.547 243.609 261.7C243.495 261.86 243.439 262.04 243.439 262.24C243.439 262.533 243.582 262.76 243.869 262.92C244.162 263.08 244.575 263.16 245.109 263.16C246.249 263.16 246.819 262.81 246.819 262.11C246.819 261.843 246.729 261.62 246.549 261.44C246.369 261.267 246.155 261.163 245.909 261.13C245.749 261.11 245.582 261.087 245.409 261.06C245.242 261.04 245.075 261.02 244.909 261C244.749 260.98 244.599 260.963 244.459 260.95C244.319 260.937 244.205 260.923 244.119 260.91C243.745 260.87 243.462 260.77 243.269 260.61C243.075 260.45 242.979 260.23 242.979 259.95C242.979 259.717 243.075 259.51 243.269 259.33C243.462 259.15 243.705 259.037 243.999 258.99V258.95C243.852 258.89 243.715 258.807 243.589 258.7C243.462 258.587 243.352 258.46 243.259 258.32C243.172 258.18 243.102 258.03 243.049 257.87C242.995 257.703 242.969 257.533 242.969 257.36C242.969 257.107 243.015 256.873 243.109 256.66C243.209 256.447 243.345 256.263 243.519 256.11C243.699 255.95 243.909 255.827 244.149 255.74C244.389 255.647 244.652 255.6 244.939 255.6C245.232 255.6 245.509 255.647 245.769 255.74C246.029 255.827 246.252 255.957 246.439 256.13C246.665 255.943 246.865 255.81 247.039 255.73C247.212 255.643 247.375 255.6 247.529 255.6C247.769 255.6 247.959 255.657 248.099 255.77C248.245 255.877 248.319 256.023 248.319 256.21C248.319 256.323 248.279 256.413 248.199 256.48C248.125 256.547 248.032 256.58 247.919 256.58C247.825 256.58 247.749 256.563 247.689 256.53C247.629 256.497 247.572 256.463 247.519 256.43C247.472 256.39 247.422 256.353 247.369 256.32C247.315 256.287 247.249 256.27 247.169 256.27C247.009 256.27 246.845 256.327 246.679 256.44C246.839 256.687 246.919 256.997 246.919 257.37C246.919 257.937 246.742 258.383 246.389 258.71C246.035 259.03 245.505 259.217 244.799 259.27C244.392 259.303 244.109 259.347 243.949 259.4C243.789 259.453 243.709 259.55 243.709 259.69C243.709 259.797 243.769 259.877 243.889 259.93C244.009 259.977 244.185 260.007 244.419 260.02Z" fill="#0A0909"/>
<rect x="103" y="112" width="185" height="39" rx="10" fill="#888888"/>
<path d="M138.278 127.592H139.216V128.124C139.216 128.861 139.071 129.547 138.782 130.182C138.493 130.807 138.082 131.358 137.55 131.834C137.027 132.301 136.411 132.655 135.702 132.898L135.142 131.988C135.767 131.783 136.313 131.489 136.78 131.106C137.247 130.714 137.611 130.261 137.872 129.748C138.143 129.235 138.278 128.693 138.278 128.124V127.592ZM138.474 127.592H139.426V128.124C139.426 128.516 139.501 128.894 139.65 129.258C139.809 129.622 140.028 129.963 140.308 130.28C140.588 130.588 140.924 130.859 141.316 131.092C141.708 131.325 142.137 131.512 142.604 131.652L142.058 132.562C141.349 132.347 140.723 132.025 140.182 131.596C139.65 131.157 139.23 130.644 138.922 130.056C138.623 129.459 138.474 128.815 138.474 128.124V127.592ZM135.464 126.948H142.226V127.886H135.464V126.948ZM138.278 125.366H139.44V127.284H138.278V125.366ZM141.834 129.034H144.69V129.986H141.834V129.034ZM144.368 125.422H145.53V133.094H144.368V125.422ZM141.358 133.43C142.674 133.43 143.705 133.635 144.452 134.046C145.199 134.447 145.572 135.012 145.572 135.74C145.572 136.468 145.199 137.037 144.452 137.448C143.705 137.859 142.674 138.064 141.358 138.064C140.051 138.064 139.02 137.859 138.264 137.448C137.517 137.037 137.144 136.468 137.144 135.74C137.144 135.012 137.517 134.447 138.264 134.046C139.02 133.635 140.051 133.43 141.358 133.43ZM141.358 134.34C140.723 134.34 140.177 134.396 139.72 134.508C139.263 134.611 138.908 134.769 138.656 134.984C138.413 135.189 138.292 135.441 138.292 135.74C138.292 136.039 138.413 136.295 138.656 136.51C138.908 136.715 139.263 136.874 139.72 136.986C140.177 137.098 140.723 137.154 141.358 137.154C142.002 137.154 142.548 137.098 142.996 136.986C143.453 136.874 143.803 136.715 144.046 136.51C144.298 136.295 144.424 136.039 144.424 135.74C144.424 135.441 144.298 135.189 144.046 134.984C143.803 134.769 143.453 134.611 142.996 134.508C142.548 134.396 142.002 134.34 141.358 134.34ZM151.157 127.452H152.095V127.984C152.095 128.693 151.946 129.351 151.647 129.958C151.358 130.565 150.942 131.087 150.401 131.526C149.869 131.965 149.248 132.296 148.539 132.52L147.993 131.61C148.618 131.423 149.169 131.148 149.645 130.784C150.121 130.42 150.49 130 150.751 129.524C151.022 129.039 151.157 128.525 151.157 127.984V127.452ZM151.353 127.452H152.305V127.984C152.305 128.376 152.38 128.749 152.529 129.104C152.688 129.449 152.907 129.771 153.187 130.07C153.476 130.359 153.817 130.616 154.209 130.84C154.601 131.064 155.03 131.241 155.497 131.372L154.965 132.282C154.256 132.077 153.626 131.769 153.075 131.358C152.534 130.938 152.109 130.443 151.801 129.874C151.502 129.295 151.353 128.665 151.353 127.984V127.452ZM148.343 126.836H155.105V127.76H148.343V126.836ZM151.157 125.366H152.319V127.284H151.157V125.366ZM154.741 128.81H157.555V129.762H154.741V128.81ZM157.247 125.422H158.395V132.436H157.247V125.422ZM150.303 133.01H151.451V134.522H157.247V133.01H158.395V137.924H150.303V133.01ZM151.451 135.432V136.972H157.247V135.432H151.451ZM163.994 126.78H164.946V127.802C164.946 128.586 164.797 129.309 164.498 129.972C164.209 130.635 163.798 131.213 163.266 131.708C162.743 132.203 162.123 132.581 161.404 132.842L160.816 131.918C161.451 131.694 162.006 131.377 162.482 130.966C162.958 130.546 163.327 130.065 163.588 129.524C163.859 128.983 163.994 128.409 163.994 127.802V126.78ZM164.204 126.78H165.156V127.802C165.156 128.353 165.282 128.875 165.534 129.37C165.786 129.865 166.141 130.299 166.598 130.672C167.055 131.045 167.592 131.339 168.208 131.554L167.662 132.464C166.953 132.221 166.341 131.871 165.828 131.414C165.315 130.957 164.913 130.42 164.624 129.804C164.344 129.179 164.204 128.511 164.204 127.802V126.78ZM161.166 126.36H167.942V127.312H161.166V126.36ZM169.538 125.422H170.7V133.052H169.538V125.422ZM170.378 128.642H172.562V129.608H170.378V128.642ZM166.668 133.402C167.527 133.402 168.264 133.495 168.88 133.682C169.505 133.859 169.986 134.121 170.322 134.466C170.658 134.811 170.826 135.231 170.826 135.726C170.826 136.221 170.658 136.641 170.322 136.986C169.986 137.331 169.505 137.597 168.88 137.784C168.264 137.971 167.527 138.064 166.668 138.064C165.809 138.064 165.067 137.971 164.442 137.784C163.817 137.597 163.336 137.331 163 136.986C162.664 136.641 162.496 136.221 162.496 135.726C162.496 135.231 162.664 134.811 163 134.466C163.336 134.121 163.817 133.859 164.442 133.682C165.067 133.495 165.809 133.402 166.668 133.402ZM166.668 134.326C166.043 134.326 165.501 134.382 165.044 134.494C164.596 134.606 164.251 134.765 164.008 134.97C163.765 135.175 163.644 135.427 163.644 135.726C163.644 136.025 163.765 136.281 164.008 136.496C164.251 136.701 164.596 136.86 165.044 136.972C165.501 137.084 166.043 137.14 166.668 137.14C167.293 137.14 167.83 137.084 168.278 136.972C168.726 136.86 169.071 136.701 169.314 136.496C169.557 136.281 169.678 136.025 169.678 135.726C169.678 135.427 169.557 135.175 169.314 134.97C169.071 134.765 168.726 134.606 168.278 134.494C167.83 134.382 167.293 134.326 166.668 134.326ZM181.95 126.682H182.958V127.214C182.958 127.662 182.869 128.087 182.692 128.488C182.514 128.889 182.267 129.263 181.95 129.608C181.632 129.944 181.264 130.243 180.844 130.504C180.424 130.765 179.971 130.989 179.486 131.176C179.01 131.353 178.515 131.484 178.002 131.568L177.554 130.644C178.002 130.588 178.436 130.485 178.856 130.336C179.285 130.177 179.686 129.991 180.06 129.776C180.433 129.561 180.76 129.319 181.04 129.048C181.329 128.777 181.553 128.488 181.712 128.18C181.87 127.863 181.95 127.541 181.95 127.214V126.682ZM182.244 126.682H183.252V127.214C183.252 127.541 183.331 127.863 183.49 128.18C183.648 128.488 183.868 128.777 184.148 129.048C184.437 129.319 184.768 129.561 185.142 129.776C185.515 129.991 185.912 130.177 186.332 130.336C186.761 130.485 187.2 130.588 187.648 130.644L187.214 131.568C186.7 131.484 186.201 131.353 185.716 131.176C185.23 130.989 184.778 130.765 184.358 130.504C183.938 130.243 183.569 129.944 183.252 129.608C182.934 129.263 182.687 128.889 182.51 128.488C182.332 128.087 182.244 127.662 182.244 127.214V126.682ZM182.006 133.262H183.154V138.078H182.006V133.262ZM176.882 132.632H188.32V133.584H176.882V132.632ZM177.96 126.206H187.228V127.144H177.96V126.206ZM189.761 135.474H201.241V136.454H189.761V135.474ZM194.871 132.408H196.019V135.796H194.871V132.408ZM194.829 126.262H195.851V127.242C195.851 127.793 195.753 128.311 195.557 128.796C195.37 129.272 195.109 129.72 194.773 130.14C194.437 130.551 194.049 130.919 193.611 131.246C193.181 131.573 192.719 131.848 192.225 132.072C191.73 132.296 191.226 132.459 190.713 132.562L190.209 131.596C190.657 131.521 191.1 131.391 191.539 131.204C191.987 131.008 192.407 130.775 192.799 130.504C193.191 130.224 193.541 129.916 193.849 129.58C194.157 129.235 194.395 128.866 194.563 128.474C194.74 128.073 194.829 127.662 194.829 127.242V126.262ZM195.039 126.262H196.047V127.242C196.047 127.671 196.135 128.082 196.313 128.474C196.49 128.866 196.733 129.235 197.041 129.58C197.349 129.916 197.699 130.224 198.091 130.504C198.492 130.784 198.912 131.017 199.351 131.204C199.799 131.391 200.247 131.521 200.695 131.596L200.191 132.562C199.677 132.459 199.173 132.296 198.679 132.072C198.184 131.848 197.717 131.573 197.279 131.246C196.84 130.919 196.453 130.551 196.117 130.14C195.781 129.72 195.515 129.267 195.319 128.782C195.132 128.297 195.039 127.783 195.039 127.242V126.262ZM205.77 131.946H217.208V132.912H205.77V131.946ZM210.908 130.07H212.07V132.254H210.908V130.07ZM207.044 134.144H215.794V138.092H214.632V135.082H207.044V134.144ZM207.282 125.716H208.43V127.158H214.562V125.716H215.71V130.462H207.282V125.716ZM208.43 128.054V129.524H214.562V128.054H208.43ZM221.743 126.514H222.695V128.782C222.695 129.482 222.607 130.168 222.429 130.84C222.261 131.512 222.019 132.142 221.701 132.73C221.384 133.318 221.011 133.841 220.581 134.298C220.152 134.755 219.685 135.119 219.181 135.39L218.467 134.452C218.934 134.219 219.363 133.906 219.755 133.514C220.157 133.113 220.507 132.655 220.805 132.142C221.104 131.629 221.333 131.087 221.491 130.518C221.659 129.939 221.743 129.361 221.743 128.782V126.514ZM221.953 126.514H222.891V128.782C222.891 129.342 222.971 129.897 223.129 130.448C223.297 130.999 223.531 131.517 223.829 132.002C224.128 132.487 224.469 132.921 224.851 133.304C225.243 133.687 225.663 133.99 226.111 134.214L225.397 135.138C224.903 134.886 224.445 134.541 224.025 134.102C223.615 133.663 223.251 133.164 222.933 132.604C222.625 132.035 222.383 131.428 222.205 130.784C222.037 130.131 221.953 129.463 221.953 128.782V126.514ZM227.217 125.422H228.379V138.092H227.217V125.422ZM228.113 130.546H230.451V131.54H228.113V130.546ZM240.11 125.422H241.258V138.092H240.11V125.422ZM240.992 130.63H243.33V131.61H240.992V130.63ZM231.458 127.452H238.92V128.404H231.458V127.452ZM235.252 129.44C235.849 129.44 236.377 129.566 236.834 129.818C237.301 130.07 237.665 130.415 237.926 130.854C238.197 131.283 238.332 131.783 238.332 132.352C238.332 132.921 238.197 133.425 237.926 133.864C237.665 134.303 237.301 134.648 236.834 134.9C236.377 135.143 235.849 135.264 235.252 135.264C234.655 135.264 234.123 135.143 233.656 134.9C233.199 134.648 232.835 134.303 232.564 133.864C232.293 133.425 232.158 132.921 232.158 132.352C232.158 131.783 232.293 131.283 232.564 130.854C232.835 130.415 233.199 130.07 233.656 129.818C234.123 129.566 234.655 129.44 235.252 129.44ZM235.252 130.406C234.869 130.406 234.529 130.49 234.23 130.658C233.931 130.826 233.693 131.055 233.516 131.344C233.348 131.633 233.264 131.969 233.264 132.352C233.264 132.735 233.348 133.075 233.516 133.374C233.693 133.663 233.931 133.892 234.23 134.06C234.529 134.219 234.869 134.298 235.252 134.298C235.625 134.298 235.961 134.219 236.26 134.06C236.559 133.892 236.792 133.663 236.96 133.374C237.137 133.075 237.226 132.735 237.226 132.352C237.226 131.969 237.137 131.633 236.96 131.344C236.792 131.055 236.559 130.826 236.26 130.658C235.961 130.49 235.625 130.406 235.252 130.406ZM234.65 125.576H235.812V127.872H234.65V125.576ZM253.633 125.422H254.795V138.092H253.633V125.422ZM249.923 126.794H251.071C251.071 127.709 250.959 128.591 250.735 129.44C250.52 130.289 250.18 131.097 249.713 131.862C249.246 132.618 248.64 133.323 247.893 133.976C247.146 134.629 246.241 135.213 245.177 135.726L244.561 134.788C245.784 134.2 246.792 133.514 247.585 132.73C248.378 131.946 248.966 131.073 249.349 130.112C249.732 129.141 249.923 128.096 249.923 126.976V126.794ZM245.149 126.794H250.413V127.732H245.149V126.794Z" fill="white"/>
</svg>
